<svg xmlns="http://www.w3.org/2000/svg" xml:space="preserve" viewBox="0 0 172.01 171.12"><metadata xmlns:fl="https://football-logos.cc/tournaments/uefa-champions-league">dl1_444a81edb4303b568ee92cbdf301c46687b0ad33fc3e96e8102795811e9bd340</metadata><!-- Source: https://football-logos.cc --><path d="M103.458.081c-5.78 1.93-10.752 4.668-14.741 8.39 6.641 2.428 13.737 4.4 19.296 7.91-8.558-.031-15.961.273-23.73 1.318-1.547.209-3.605.153-4.435.6-.97.522-2.277 3.394-2.997 4.674-2.816 5.014-4.268 10.903-5.873 16.899-4.814-4.116-9.18-10.992-12.944-17.019-7.804 1.944-14.771 4.725-21.334 7.91 4.235-6.392 10.858-11.434 17.019-16.3-1.294-3.021-3.161-5.468-5.273-7.67 5.744-1.332 12.756-1.851 19.416-1.558.982.043 2.025.346 2.996.24 1.76-.192 3.971-1.381 5.993-2.038C84.588.926 94.134-.345 103.458.081m34.038 15.342c3.964 3.212 7.274 8.265 9.948 12.824.955 1.63 1.498 3.512 2.517 4.914 1.269 1.746 3.605 3.002 5.273 4.674 4.942 4.956 9.141 10.839 12.105 17.738-2.99-2.164-6.571-3.736-11.026-4.435 1.334 7.13 2.343 16.741 2.277 24.569-1.524-1.87-2.485-4.264-3.715-6.472-3.658-6.57-7.903-13.114-12.226-19.057-8.892.137-17.285 1.702-25.049 3.356 3.016-4.024 7.428-8.584 10.787-13.423.499-.719 2.55-3.168 2.517-4.075-.026-.724-1.661-2.106-2.397-2.877-5.91-6.186-12.483-11.893-19.775-16.539 9.86.493 19.742 4.295 27.686 7.79 1.122-2.41 1.633-5.834 1.078-8.987M32.267 17.1c-2.688 4.583-6.111 9.47-8.03 15.221 3.464-.372 7.369-1.34 11.625-1.318-3.546 3.096-7.959 6.369-11.985 9.948-1.163 1.033-3.177 2.49-3.835 3.596-1.094 1.837-1.303 5.866-1.678 8.39-.62 4.172-1.059 7.6-.959 12.105-1.758-1.75-3.676-4.847-5.154-7.67-.214-.409-1.123-2.829-1.438-2.877-.415-.063-2.341 2.768-2.757 3.356-2.484 3.515-4.953 7.206-6.711 11.266C4.928 45.532 17.492 29.892 32.267 17.1m38.592 23.132c4.776 7.41 8.996 15.375 14.263 22.292 10.182-3.281 20.613-6.313 31.641-8.749-.173 1.248-1.385 2.009-2.157 2.996-4.879 6.23-9.604 12.767-14.382 19.416-.516.718-2.252 2.728-2.277 3.356-.032.789 1.762 2.523 2.396 3.356 5.593 7.327 12.622 14.477 18.577 20.974-9.555-1.727-19.081-3.992-28.285-6.472-1.127-.304-3.258-1.116-3.955-.959-1.106.25-3.345 4.867-3.955 5.873-3.652 6.019-7.561 12.154-10.906 18.337-2.139-7.819-3.843-16.762-4.674-26.247-.108-1.241-.001-3.324-.359-3.956-.544-.958-5.247-1.955-6.472-2.397-6.472-2.334-12.793-5.156-18.937-7.67 7.887-4.178 16.666-7.465 25.049-11.146.511-10.689 1.991-20.063 4.433-29.004M17.165 65.52c.764 5.588.891 11.814 2.157 16.899 6.88-.99 13.82-1.92 21.573-2.038-4.985 4.577-11.124 10.177-16.06 16.06-.625.746-1.83 2.054-1.917 2.637-.157 1.044.84 2.954 1.198 4.195 1.792 6.208 4.089 11.755 6.952 16.779-5.44-3.109-10.811-6.289-15.581-10.067-2.674 4.118-4.757 8.827-5.993 14.382-2.174-4.386-3.601-10.63-3.955-17.259-.119-2.216.318-4.829-.12-6.831-.302-1.383-2.248-3.201-3.116-4.674-.718-1.22-2.545-3.965-2.277-5.394.219-1.167 2.617-2.157 3.715-2.756 1.608-.877 2.881-1.591 4.314-2.038 2.144-7.776 5.426-13.673 9.11-19.895m141.186 11.027c1.623 7.425 2.16 15.295 2.757 23.611 4.513-1.28 8.309-4.954 10.906-8.15-1.764 8.759-4.899 17.73-9.708 23.611-.474.579-1.31.991-1.559 1.678-.561 1.548-.417 3.64-.719 5.274-.914 4.942-2.216 9.268-4.434 13.184-1.982-2.055-4.099-5.009-6.951-6.592-6.672 4.515-14.25 8.122-23.371 10.187 3.597-4.841 6.916-10.118 10.307-15.581.315-.507 1.365-1.847 1.318-2.277-.06-.562-1.661-1.411-2.396-2.038-5.373-4.575-11.002-9.996-14.981-15.461 7.009.862 15.896 1.227 23.371.479 1.128-.113 2.777.039 3.355-.24.54-.26 1.156-2.22 1.678-3.236 3.895-7.586 7.416-16.422 10.427-24.449M31.188 120.173c6.413 5.733 13.094 11.196 20.375 16.061 7.545-4.28 13.849-9.802 20.135-15.341a276 276 0 0 0-2.757 19.057c-.182 1.65-1.077 5.153-.599 6.592.329.99 3.209 1.969 4.435 2.637a273 273 0 0 0 13.902 7.071c-6.565.45-11.812.915-18.337.839.089 4.626.925 9.541 2.756 12.824-7.93-2.058-13.65-6.622-18.697-12.105-.636-.691-1.473-1.978-2.038-2.277-.894-.474-2.535-.465-3.715-.719-9.107-1.961-18.428-5.508-23.371-11.267 5.945 1.538 12.854-.148 17.379-1.918-3.378-6.929-6.979-13.636-9.468-21.454m93.844 19.296c1.028 4.937.584 10.866-.239 15.701 8.071-1.477 14.929-4.168 20.614-8.03-6.312 6.673-15.163 12.828-24.81 16.899-9.859 4.161-21.372 7.311-34.637 7.071 4.889-1.384 9.251-3.293 13.063-5.753-4.19-2.801-8.537-5.445-11.865-9.109 6.316.897 13.398 1.255 20.136.958.646-.028 1.48.163 2.157 0 1.3-.313 3.188-2.768 4.314-3.955 3.993-4.205 8.322-9.251 11.267-13.782" style="fill:#fff;fill-rule:evenodd;clip-rule:evenodd" data-source="https://football-logos.cc"></path><!-- source: https://football-logos.cc --></svg>