<svg xmlns="http://www.w3.org/2000/svg" width="500" height="177">
  <defs>
    <linearGradient id="a" x1="0" x2="1" y1="0" y2="0" gradientTransform="rotate(-120 152.41 14.638) scale(110.04193)" gradientUnits="userSpaceOnUse" spreadMethod="pad">
      <stop offset="0" stop-color="#fff"/>
      <stop offset=".9" stop-color="#231f54"/>
      <stop offset="1" stop-color="#231f54"/>
    </linearGradient>
    <linearGradient id="b" x1="0" x2="1" y1="0" y2="0" gradientTransform="rotate(65 147.688 316.166) scale(119.66833)" gradientUnits="userSpaceOnUse" spreadMethod="pad">
      <stop offset="0" stop-color="#fff"/>
      <stop offset="1" stop-color="#231f54"/>
    </linearGradient>
    <linearGradient id="c" x1="0" x2="1" y1="0" y2="0" gradientTransform="scale(113.80624) rotate(77 1.031 1.333)" gradientUnits="userSpaceOnUse" spreadMethod="pad">
      <stop offset="0" stop-color="#fff"/>
      <stop offset=".1" stop-color="#fff"/>
      <stop offset=".9" stop-color="#231f54"/>
      <stop offset="1" stop-color="#231f54"/>
    </linearGradient>
  </defs>
  <path fill="url(#a)" d="m168.449 19.093-9.987 17.711-.062 119.602v.013l18.323-15.836-.012-.025c11.661-10.062 19.06-24.923 19.06-41.547l-.024-76.655c-.125-8.237-4.775-14.962-10.924-18.786z"/>
  <path fill="#8474b5" d="M352.717 88.596v-.025z"/>
  <path fill="#231f54" d="M357.115 0H251.237l-23.648 30.097c-6.775 8.575-8.062 12.287-8.062 21.286v18.786c.712-27.448 25.598-32.072 36.384-32.822 3.05-.213 4.975-.125 4.9-.138h66.794z"/>
  <path fill="#b69e7b" d="M158.399 156.416c-10.85-.5-36.635-7.474-46.109-36.546l-26.385 33.347a36.124 36.124 0 0 0 19.398 20.285c4.125 2.113 9.712 3.475 15.699 3.475 6.474 0 14.574-3.087 19.698-6.274 2.213-1.413 15.886-12.4 17.699-14.287"/>
  <path fill="#231f54" d="M473.941.179h-60.107V.19c-38.622.225-66.42 28.96-68.882 65.345a84.433 84.433 0 0 0-.2 5.949h-.025v34.597h.013c-.013-6.05 2.7-17.449 2.7-17.449 6.324-24.36 31.172-51.67 66.856-51.17l31.497-.325L475.141.178Z"/>
  <path fill="url(#b)" d="M347.408 88.762c-.3 1.275-2.687 11.65-2.674 17.311h-.013c.013 1.9.088 3.775.213 5.587 2.462 36.372 30.26 65.095 68.881 65.307H447l29.197-36.922-61.92-.325c-35.659.5-60.494-26.76-66.844-51.083 0 0-.012.038-.025.125"/>
  <path fill="url(#c)" d="M260.366 37.204h-.525c-.85 0-2.2.025-3.925.138-10.761.75-35.534 5.35-36.384 32.597l.088 107.028h41.183v-58.495h.075v-.1h54.783V80h-54.858V37.204c-.012.013-.162 0-.437 0"/>
  <path fill="#231f54" d="M173.322.146c3.95 0 7.975 1.225 11.5 3.425L47.295 176.98H0L139.988.146ZM484.726 9.514V1.327h-2.462V.177h6.087v1.15h-2.475v8.187zM500 .18v9.337h-1.125l.013-7.15-2.85 5.05h-.888l-2.937-5.137v7.237h-1.05V.18h1.125l3.362 5.9 3.25-5.9z"/>
</svg>
