<svg xmlns="http://www.w3.org/2000/svg" viewBox="0 0 2472.5 2922.65"><!-- Source: https://football-logos.cc --><path d="M2208.73 2791.67v6.33h263.75l-26.35 113.95h-361.92v-87.56c0-40.45 3.17-74.28 9.5-101.58 6.33-27.21 17.84-53.28 34.57-78.07 16.69-24.79 41.4-51.96 74.12-81.52l69.64-63.31c23.56-21.09 40.7-38.76 51.43-52.99 10.73-14.26 18.01-29.47 21.91-45.67 3.86-16.15 5.8-37.99 5.8-65.4v-13.69c0-24.62-2.47-43.37-7.4-56.2-4.93-12.82-12.04-21.54-21.38-26.14-9.33-4.56-21.87-6.82-37.7-6.82h-12.66c-17.27 0-30.71 3.16-40.37 9.49s-16.61 16.77-20.84 31.37c-4.23 14.59-6.33 34.9-6.33 60.96 0 20.72.33 39.55 1.07 56.44.29 7.73.82 16.52 1.48 26.47l-120.28-70.42c-.29-9.13-.45-18.21-.45-27.29 0-67.17 16.28-117.57 48.8-151.16 32.56-33.59 79.26-50.36 140.1-50.36h20.02c59.44 0 103.84 17.92 133.23 53.81 29.35 35.85 44.03 85.09 44.03 147.7v9.49c0 37.66-3.17 69.1-9.5 94.43-6.33 25.32-18.46 50.77-36.38 76.26-17.96 25.49-45.22 55.82-81.77 91.01l-71.78 68.57c-18.62 17.92-32.43 32.89-41.4 44.85-8.96 11.96-15.05 24.34-18.21 37.16-3.17 12.87-4.73 29.47-4.73 49.86Zm-2083.42 7.66v-670.25H0v782.87h294.16l32.15-112.62zm256.13-670.25v782.87h121.19v-782.87zm644.74 347.65H819.26l-26.36 99.15h114.33c.7 24.64 1.06 44.52 1.06 59.62 0 43.98-1.96 77.94-5.8 101.85-3.88 23.91-9.67 41.66-17.43 53.29-6 8.41-13.71 14.57-23.22 18.45-9.5 3.88-21.79 5.8-36.93 5.8H804.1c-16.2 0-29.74-2.29-40.64-6.85-10.9-4.57-19.34-12.12-25.3-22.69-7.06-12.28-12.33-36.11-15.83-71.49-3.51-35.34-5.26-94.14-5.26-176.44v-33.78c0-82.3 1.75-141.02 5.26-176.19 3.51-35.18 8.77-58.92 15.83-71.25 11.22-20.04 33.21-30.07 65.94-30.07h11.59c15.46 0 27.87 1.96 37.22 5.83 9.3 3.88 16.93 10 22.93 18.45 6.69 9.18 11.18 20.85 13.47 35.09s3.43 33.5 3.43 57.78v42.96l116.98-68.31c0-26.73-2.13-49.49-6.32-68.3-4.24-18.81-11.63-37.38-22.15-55.66-29.22-50.31-81.61-75.45-157.22-75.45h-33.5c-34.48 0-65.17 6.78-92.06 20.32-26.89 13.55-47.42 32.6-61.45 57.24-15.51 26.73-26.4 60.1-32.73 100.22-6.32 40.11-9.5 98.3-9.5 174.64v99.16c0 51.7 1.43 94.54 4.24 128.45 2.81 33.95 7.18 62.35 13.18 85.2 5.96 22.89 14.24 43.3 24.8 61.21 14.04 24.64 34.56 43.7 61.45 57.24 26.89 13.55 57.58 20.32 92.06 20.32h34.56c34.11 0 64.79-6.32 92.06-19.02 27.25-12.65 53.05-32.69 69.21-60.14 23.95-41.82 39.99-104.46 39.99-187.78 0-73.16-.16-132.05-.16-178.84h-.02Zm498.38-347.65v782.87h-120.82c-.12.04-4.33.09-4.45.12v-117.36l-63.74 118.33c-26.97 9.47-135.79 21.54-175.62-16.44-32.15-30.69-52.92-67.74-52.92-188.27v-579.25h125.31v591.49c0 23.22 0 37.7 5.1 50.92 5.1 13.18 13.63 22.56 25.59 28.2 11.95 5.63 28.48 8.45 49.62 8.45h5.39c46.17 0 81.28-26.16 81.28-26.16v-652.9h125.27Zm223.41 674.33v-247.68h129.84l28.07-112.62h-157.91v-205.49h199.45l-28.07-108.54h-295.59v782.87h306.11l28.07-108.54h-209.98Zm-563.18-1711.45s-301.17 43.63-374.2 312.62-154.05 552.69-154.05 552.69h868.02l71.82-252.78h-586.59l175-612.52Z" data-source="https://football-logos.cc"></path><path d="m1021.8 671.16 115.48-412.04s47.98-248.79 265.07-256.07c103.6-3.47 151.75-4.63 265.07 0 0 0 262.8 4.11 223.43 292.81-76.11 296.57-229.82 831.96-229.82 831.96s-87.28 260.01-370.4 321.67l319.05-1161.51h-197.97l-156.33 561.64z" data-source="https://football-logos.cc"></path><path d="m2207.04 2417.74-120.28-70.42" style="fill:none" data-source="https://football-logos.cc"></path><!-- source: https://football-logos.cc --></svg>