<svg xmlns="http://www.w3.org/2000/svg" xmlns:xlink="http://www.w3.org/1999/xlink" viewBox="0.04 0 114.88 149"><!-- Source: https://football-logos.cc --><defs data-source="https://football-logos.cc"><linearGradient id="f" x1="209.976" x2="209.976" y1="224.3" y2="296.418" gradientTransform="matrix(.37676 0 0 .37503 .043 -71.215)" gradientUnits="userSpaceOnUse"><stop offset=".4" style="stop-color:red;stop-opacity:1"></stop><stop offset="1" style="stop-color:#d42321;stop-opacity:1"></stop></linearGradient><linearGradient id="c" x1="210.42" x2="209.166" y1="259.08" y2="223.159" gradientTransform="matrix(.37676 0 0 .37503 .043 -71.215)" gradientUnits="userSpaceOnUse"><stop offset="0" style="stop-color:#fff;stop-opacity:1"></stop><stop offset="1" style="stop-color:#fff;stop-opacity:.25098"></stop></linearGradient><linearGradient id="i" x1="82.467" x2="82.467" y1="228.451" y2="292.27" gradientTransform="matrix(.37676 0 0 .37503 .043 -71.215)" gradientUnits="userSpaceOnUse"><stop offset="0" style="stop-color:#002a91;stop-opacity:1"></stop><stop offset=".8" style="stop-color:#002672;stop-opacity:1"></stop></linearGradient><linearGradient id="e" x1="83.008" x2="82.164" y1="262.262" y2="238.104" gradientTransform="matrix(.37676 0 0 .37503 .043 -71.215)" gradientUnits="userSpaceOnUse"><stop offset="0" style="stop-color:#fff;stop-opacity:1"></stop><stop offset="1" style="stop-color:#fff;stop-opacity:.25098"></stop></linearGradient><clipPath id="b"><path d="M0 0h115v149H0z"></path></clipPath><clipPath id="d"><path d="M0 0h115v149H0z"></path></clipPath><mask id="h"><g filter="url(#a)"><path d="M0 0h115v149H0z" style="fill:#000;fill-opacity:.4;stroke:none"></path></g></mask><mask id="k"><g filter="url(#a)"><path d="M0 0h115v149H0z" style="fill:#000;fill-opacity:.25098;stroke:none"></path></g></mask><g id="g" clip-path="url(#b)"><path d="M56.145 26.328h.148c5.352-.187 45.777-1.574 45.777-1.574.68-.04 1.356-.527 1.356-1.39v-8.66c0-.977-.828-1.802-1.809-1.802H56.672c-.98 0-1.809.825-1.809 1.801v13.012c0-.113.035-1.274 1.282-1.387m0 0" style="stroke:none;fill-rule:nonzero;fill:url(#c)"></path></g><g id="j" clip-path="url(#d)"><path d="m50.793 19.727-2.79 6.187a1.3 1.3 0 0 1-1.167.715c-.188 0-2.559.074-2.559.074-.453 0-.605.45-.605.45l2.414-5.665c.828-1.988 2.144-2.175 3.125-2.175.566.078 1.242.265 1.582.414m-7.309 7.386-4.71-7.613c-.301-.074-1.055-.223-1.618-.223-1.734 0-2.676.637-3.656 1.688l-4.71 5.101.378.563c.148.223.488.562 1.129.562.226 0 2.488-.078 2.676-.078.566 0 .98.227 1.168.528l-.828-1.239 3.203-3.414 2.144 3.375c.418.489.98.528 1.094.528.113 0 2.976-.114 3.09-.114.265 0 .453.114.64.336M27.7 14.477c-2.488 0-2.902 1.312-2.902 2.55v11.325c0-.45.34-.938.941-.973.414 0 1.582-.078 1.883-.078a.98.98 0 0 0 .98-.973V14.551c-.261-.074-.601-.074-.902-.074m-8.254 10.5-2.785-.524c-.906-.152-1.473-.375-1.473-.863s.606-.863 2.036-.863c1.394 0 2.636.148 3.43.148 1.015 0 2.109-.45 2.109-2.473 0-.261-.035-.527-.075-.789-1.546-.187-4.332-.488-6.632-.222-3.051.336-4.594 2.136-4.594 4.312 0 1.125.488 2.176 1.469 2.961.754.488 1.468.676 2.258.824.64.114 2.074.188 3.128.153.34 0 2.79-.075 3.352-.114 1.246-.039 1.922 1.012 1.887 2.102v-.453c.035-2.063-1.207-3.672-4.11-4.2m0 0" style="stroke:none;fill-rule:nonzero;fill:url(#e)"></path></g><filter id="a" width="100%" height="100%" x="0%" y="0%" filterUnits="objectBoundingBox"><feColorMatrix in="SourceGraphic" values="0 0 0 0 1 0 0 0 0 1 0 0 0 0 1 0 0 0 1 0"></feColorMatrix></filter></defs><path d="M57.5 149C25.813 149 .043 122.934.043 90.945V0h114.875v90.945C114.957 122.934 89.188 149 57.5 149" style="stroke:none;fill-rule:nonzero;fill:#fff;fill-opacity:1"></path><path d="M111.68 8.965V3.227H3.32v87.718c0 30.227 24.301 54.793 54.22 54.793 29.913 0 54.214-24.566 54.214-54.793-.04-.523-.074-67.992-.074-81.98M57.5 142.512c-28.105 0-50.937-23.14-50.937-51.567V6.488h101.875v84.457c0 28.426-22.833 51.567-50.938 51.567" style="stroke:none;fill-rule:nonzero;fill:#b69b40;fill-opacity:1"></path><path d="M11.422 52.469v-3.192c0-2.285 1.129-3.375 3.617-3.375.754 0 1.621.114 2.149.301.187.074.226.152.226.34v1.012c0 .222-.078.261-.379.187a8 8 0 0 0-1.77-.226c-1.394 0-1.921.601-1.921 1.988v2.812c0 1.387.527 1.95 1.957 1.95.719 0 1.433-.188 1.96-.375.114-.036.34 0 .262.226l-.187 1.086c-.035.227-.113.3-.3.34-.528.187-1.243.3-2.071.3-2.527 0-3.543-.976-3.543-3.374M25.7 46.277v9.227q0 .227-.223.226h-.227c-.98 0-1.508-.488-1.508-1.574v-2.55h-2.937v3.898q-.002.227-.227.226h-.226c-.942 0-1.508-.488-1.508-1.574v-7.84c0-.187.039-.226.226-.226h1.508c.149 0 .227.078.227.226v3.79h2.937v-3.79q-.001-.224.227-.226h1.508c.187-.035.222.039.222.187M26.758 55.504c.863-3.3 1.695-6.524 2.523-9.074.074-.262.227-.375.528-.375h1.62c.337 0 .489.113.563.375.828 2.55 1.695 5.773 2.563 9.074.039.152-.04.226-.227.226H32.86c-.187 0-.34-.074-.34-.226l-.374-1.688h-2.942a24 24 0 0 0-.375 1.727c-.039.113-.152.187-.3.187H26.98q-.28.001-.222-.226m5.047-3.188c-.266-1.425-.715-3.187-1.094-4.648h-.074c-.375 1.46-.828 3.223-1.094 4.648ZM35.535 55.504c0-2.586.113-6.227.3-9.227q0-.222.227-.222h1.508c.188 0 .262.035.34.187l2.336 4.762h.035l2.188-4.762c.074-.152.148-.187.336-.187h1.508c.152 0 .187.074.226.222.227 3 .379 6.641.379 9.227q-.002.227-.227.226h-1.433q-.225.001-.227-.226c0-2.285-.035-4.762-.113-6.488h-.074l-1.883 4.09c-.078.148-.188.261-.379.261h-.602c-.187 0-.265-.113-.375-.262l-2-4.09h-.074c-.039 1.762-.039 4.09-.039 6.489q0 .227-.222.226h-1.434c-.227 0-.3-.074-.3-.226M52.715 49.055v.148c0 1.125-.3 1.95-.98 2.477-.563.449-1.356.675-2.45.675h-.941v3.223q.001.227-.227.227h-.226c-.977 0-1.504-.489-1.504-1.575v-7.84c0-.187.074-.261.261-.261h2.602c1.203 0 1.957.187 2.484.601.641.375.98 1.047.98 2.325m-1.956 0c0-.602-.153-.938-.38-1.125-.26-.227-.6-.301-1.28-.301h-.715v3.148h.601c.793 0 1.133-.074 1.395-.336.226-.226.34-.601.34-1.273ZM53.395 55.504v-.973q-.001-.227.226-.226h.977V47.44h-.977q-.227.001-.226-.226v-.973q-.001-.227.226-.226h3.992c.153 0 .262.039.227.226l-.153 1.012c-.035.148-.113.226-.261.226h-.867v6.864h.98c.148 0 .188.035.188.222v.977q0 .223-.227.223h-3.918c-.113-.036-.227-.11-.187-.262M59.875 55.055c-.605-.524-.941-1.352-.941-2.399v-3.488c0-1.203.449-2.102 1.242-2.625.601-.414 1.394-.602 2.297-.602.906 0 1.808.227 2.41.676.719.524 1.168 1.387 1.168 2.551v3.488c0 1.16-.414 2.024-1.168 2.586-.602.45-1.43.676-2.41.676-1.094-.04-1.996-.34-2.598-.863m3.766-1.164c.3-.297.453-.825.453-1.422V49.39c0-.711-.188-1.16-.489-1.426-.265-.262-.68-.375-1.132-.375-.453 0-.903.113-1.168.375-.301.3-.453.715-.453 1.426v3.078c0 .597.152 1.125.453 1.422.265.265.68.375 1.168.375.492 0 .941-.149 1.168-.375M74.68 46.277v9.227c0 .152-.114.226-.227.226h-.976c-.266 0-.418-.113-.493-.261l-3.464-5.965h-.075v6c0 .152-.078.226-.226.226h-.078c-.903 0-1.395-.488-1.395-1.574v-7.879c0-.148.04-.222.192-.222h1.09c.226 0 .34.074.417.261l3.426 5.887h.078v-5.926c0-.148.074-.222.188-.222h1.281c.187 0 .262.074.262.222M76.602 55.543c-.227-.074-.262-.188-.301-.34l-.227-1.234c-.039-.188.114-.227.301-.153.492.227 1.355.45 2.074.45 1.09 0 1.656-.45 1.656-1.16v-.075c0-.676-.3-1.09-1.242-1.426l-.605-.226c-1.278-.45-2.031-1.313-2.031-2.738v-.075c0-1.761 1.355-2.664 3.312-2.664.566 0 1.246.114 1.695.227.227.074.266.187.266.336v1.015c0 .223-.152.262-.375.223a6 6 0 0 0-1.508-.187c-.867 0-1.469.261-1.469 1.05v.04c0 .671.301 1.046 1.09 1.312l.68.262c1.508.562 2.148 1.312 2.148 2.699v.113c0 1.727-1.246 2.852-3.355 2.852-.715.035-1.543-.114-2.11-.301M90.164 46.277v9.227q.001.227-.227.226h-.222c-.98 0-1.508-.488-1.508-1.574v-2.55h-2.941v3.898q0 .227-.223.226h-.227c-.98 0-1.507-.488-1.507-1.574v-7.84c0-.187.039-.226.226-.226h1.508c.148 0 .223.078.223.226v3.79h2.941v-3.79q-.001-.224.227-.226h1.504c.152-.035.226.039.226.187M91.523 55.504v-.973q0-.227.223-.226h.98V47.44h-.98q-.222.001-.223-.226v-.973q0-.227.223-.226h3.996c.149 0 .262.039.227.226l-.114.973c-.039.152-.113.226-.265.226h-.903v6.864h.981c.148 0 .187.039.187.226v.973c0 .152-.078.226-.226.226H91.71c-.113 0-.188-.074-.188-.226M103.578 49.055v.148c0 1.125-.3 1.95-.941 2.477-.567.449-1.356.675-2.45.675h-.94v3.223q0 .227-.227.227h-.266c-.942 0-1.504-.489-1.504-1.575v-7.84c0-.187.074-.261.262-.261h2.636c1.207 0 1.961.187 2.489.601.566.375.941 1.047.941 2.325m-1.996 0c0-.602-.152-.938-.379-1.125-.262-.227-.601-.301-1.281-.301h-.715v3.148h.606c.75 0 1.128-.074 1.39-.336.227-.226.34-.601.34-1.273v-.113ZM11.422 60.566c0 .375.3.715.715.715h90.726c.375 0 .715-.34.715-.715s-.3-.71-.715-.71H12.137a.74.74 0 0 0-.715.71" style="stroke:none;fill-rule:nonzero;fill:#b69b40;fill-opacity:1"></path><path d="M55.918 130.512a2.48 2.48 0 0 1-2.488-2.477v-13.5h9.722v3.711h-5.726v2.402h5.199v3.711h-5.2v6.153Zm-14.844-2.477a2.476 2.476 0 0 0 2.485 2.477h7.16v-3.676h-5.653v-2.477h5.2v-3.71h-5.2v-2.403h5.692v-3.71h-9.684Zm33.492 2.477v-3.676h-4.972V114.57h-3.992v13.504a2.476 2.476 0 0 0 2.484 2.473h6.48Zm0 0" style="stroke:none;fill-rule:nonzero;fill:#283271;fill-opacity:1"></path><path d="M64.547 84.344c-1.66 0-3.016 1.351-3.016 3 0 1.652 1.356 3 3.016 3a3.013 3.013 0 0 0 3.012-3c0-1.649-1.317-3-3.012-3M61.078 79.094c-1.508 0-2.71 1.199-2.71 2.699s1.202 2.703 2.71 2.703a2.7 2.7 0 0 0 2.715-2.703c0-1.5-1.207-2.7-2.715-2.7M66.469 76.355a2.617 2.617 0 0 0-2.64 2.625 2.614 2.614 0 0 0 2.64 2.625 2.613 2.613 0 0 0 2.636-2.625c0-1.46-1.207-2.625-2.636-2.625M57.46 75.344a2.22 2.22 0 0 0-2.222 2.21c0 1.204 1.02 2.216 2.223 2.216 1.207 0 2.223-1.012 2.223-2.215 0-1.2-1.016-2.211-2.223-2.211M53.395 73.508c-1.02 0-1.848.824-1.848 1.836 0 1.011.828 1.836 1.848 1.836a1.843 1.843 0 0 0 1.843-1.836 1.843 1.843 0 0 0-1.843-1.836M49.625 73.055c-.79 0-1.469.64-1.469 1.465 0 .824.64 1.46 1.469 1.46.828 0 1.469-.636 1.469-1.46 0-.825-.676-1.465-1.469-1.465M54.262 70.395c-.793 0-1.395.636-1.395 1.386s.64 1.387 1.395 1.387c.75 0 1.39-.637 1.39-1.387s-.64-1.386-1.39-1.386M57.766 67.73c-.754 0-1.395.602-1.395 1.387 0 .79.602 1.39 1.395 1.39.789 0 1.39-.6 1.39-1.39 0-.785-.64-1.387-1.39-1.387M54.676 67.957a1.088 1.088 0 1 0 0 2.176 1.087 1.087 0 1 0 0-2.176M52 68.52c-.527 0-.98.449-.98.972 0 .528.453.977.98.977s.98-.45.98-.977a.97.97 0 0 0-.98-.972M50.758 70.656c-.606 0-1.059.489-1.059 1.051 0 .563.492 1.05 1.059 1.05.562 0 1.054-.487 1.054-1.05 0-.562-.453-1.05-1.054-1.05M47.363 70.918a.99.99 0 0 0-.976.977c0 .523.449.972.976.972.528 0 .98-.449.98-.972 0-.528-.452-.938-.98-.977M48.984 69.605a.715.715 0 0 0-.714.715c0 .375.34.711.714.711a.736.736 0 0 0 .715-.71.74.74 0 0 0-.715-.716M44.992 71.969c-.379 0-.68.3-.68.676 0 .375.301.675.68.675.375 0 .676-.3.676-.675s-.3-.676-.676-.676M46.309 73.242c-.641 0-1.168.528-1.168 1.164 0 .637.527 1.164 1.168 1.164s1.168-.527 1.168-1.164-.528-1.164-1.168-1.164M43.41 73.582a.913.913 0 0 0-.906.898c0 .489.414.903.906.903a.916.916 0 0 0 .903-.903.887.887 0 0 0-.903-.898M41.523 75.23a.594.594 0 0 0-.601.602c0 .336.266.598.601.598.34 0 .606-.262.606-.598a.595.595 0 0 0-.606-.602M62.172 73.055a2.22 2.22 0 0 0-2.223 2.215c0 1.238.98 2.21 2.223 2.21a2.197 2.197 0 0 0 2.223-2.21 2.22 2.22 0 0 0-2.223-2.215M70.309 81.156a2.775 2.775 0 1 0 0 5.551 2.775 2.775 0 1 0 0-5.55M73.363 76.32c-1.32 0-2.414 1.086-2.414 2.399s1.094 2.402 2.414 2.402c1.317 0 2.41-1.09 2.41-2.402s-1.093-2.399-2.41-2.399M69.895 72.305a2.26 2.26 0 0 0-2.258 2.25 2.26 2.26 0 0 0 4.52 0 2.263 2.263 0 0 0-2.262-2.25M65.676 69.566c-1.168 0-2.07.942-2.07 2.067s.94 2.062 2.07 2.062 2.07-.937 2.07-2.062a2.063 2.063 0 0 0-2.07-2.067M61.457 68.18c-.98 0-1.734.789-1.734 1.726 0 .938.793 1.727 1.734 1.727s1.73-.79 1.73-1.727-.75-1.726-1.73-1.726M57.953 71.145c-1.02 0-1.848.824-1.848 1.835s.829 1.84 1.848 1.84a1.846 1.846 0 0 0 1.844-1.84 1.843 1.843 0 0 0-1.844-1.835" style="stroke:none;fill-rule:nonzero;fill:#b69b40;fill-opacity:1"></path><path d="M58.441 95.934c0 1.648-1.355 3-3.011 3-1.66 0-3.016-1.352-3.016-3 0-1.653 1.356-3 3.016-3a3.013 3.013 0 0 1 3.011 3M61.984 93.008a2.696 2.696 0 0 0-2.714 2.699 2.7 2.7 0 0 0 2.714 2.703 2.696 2.696 0 0 0 2.711-2.703c0-1.5-1.203-2.7-2.71-2.7M61.758 99.121a2.616 2.616 0 0 0-2.637 2.625 2.616 2.616 0 0 0 2.637 2.625 2.616 2.616 0 0 0 2.637-2.625c0-1.46-1.207-2.625-2.637-2.625M67.445 92.445a2.22 2.22 0 0 0-2.222 2.211c0 1.203 1.02 2.215 2.222 2.215 1.207 0 2.223-1.012 2.223-2.215 0-1.199-.977-2.21-2.223-2.21M71.441 90.457c-1.02 0-1.847.824-1.847 1.84 0 1.012.828 1.836 1.847 1.836a1.843 1.843 0 0 0 1.844-1.836c0-1.016-.828-1.84-1.844-1.84M74.078 88.02c-.793 0-1.469.636-1.469 1.464 0 .825.641 1.461 1.47 1.461.827 0 1.468-.636 1.468-1.46 0-.829-.68-1.465-1.469-1.465M74.117 93.422c-.793 0-1.394.637-1.394 1.387s.64 1.386 1.394 1.386c.75 0 1.39-.636 1.39-1.386s-.64-1.387-1.39-1.387M74.68 97.809c-.754 0-1.395.601-1.395 1.386 0 .79.606 1.387 1.395 1.387.793 0 1.394-.598 1.394-1.387 0-.785-.64-1.386-1.394-1.386M76.3 95.484a1.09 1.09 0 0 0-1.093 1.086 1.09 1.09 0 0 0 1.094 1.086 1.09 1.09 0 0 0 1.094-1.086 1.09 1.09 0 0 0-1.094-1.086M77.203 93.047a.99.99 0 0 0-.976.973c0 .527.449.976.976.976s.98-.45.98-.976a.97.97 0 0 0-.98-.973M75.922 90.797c-.602 0-1.055.484-1.055 1.047s.492 1.05 1.055 1.05c.566 0 1.058-.488 1.058-1.05s-.492-1.047-1.058-1.047M77.469 87.871c-.528 0-.98.45-.98.973a.97.97 0 0 0 .98.976.97.97 0 0 0 .98-.976.995.995 0 0 0-.98-.973M78.07 90.27a.715.715 0 0 0-.715.714c0 .375.34.711.715.711.38 0 .72-.336.72-.71a.743.743 0 0 0-.72-.715M77.996 85.77a.677.677 0 1 0 0 1.351.677.677 0 1 0 0-1.351M75.813 85.469c-.641 0-1.168.527-1.168 1.164s.527 1.16 1.168 1.16a1.17 1.17 0 0 0 1.167-1.16c0-.637-.527-1.164-1.168-1.164M77.168 83.219a.916.916 0 0 0-.906.902c0 .484.414.899.906.899a.915.915 0 0 0 .902-.899.916.916 0 0 0-.902-.902M76.941 81.23a.594.594 0 0 0-.601.602c0 .336.262.602.601.602.34 0 .602-.266.602-.602a.594.594 0 0 0-.602-.602M67.145 97.734c-1.204 0-2.223.973-2.223 2.211a2.2 2.2 0 0 0 2.223 2.215 2.2 2.2 0 0 0 2.222-2.215 2.22 2.22 0 0 0-2.222-2.21M55.504 99.832a2.776 2.776 0 1 0 0 5.55 2.777 2.777 0 0 0 2.789-2.773 2.78 2.78 0 0 0-2.79-2.777M58.516 105.422c-1.317 0-2.41 1.086-2.41 2.398s1.093 2.403 2.41 2.403c1.32 0 2.414-1.09 2.414-2.403a2.397 2.397 0 0 0-2.414-2.398M63.906 104.707a2.263 2.263 0 0 0-2.261 2.25 2.264 2.264 0 0 0 2.261 2.254 2.263 2.263 0 0 0 2.258-2.254 2.26 2.26 0 0 0-2.258-2.25M68.5 102.684a2.06 2.06 0 0 0-2.07 2.062c0 1.125.941 2.063 2.07 2.063 1.133 0 2.074-.938 2.074-2.063a2.063 2.063 0 0 0-2.074-2.062M72.117 100.246c-.976 0-1.73.79-1.73 1.727s.789 1.722 1.73 1.722c.942 0 1.735-.785 1.735-1.722 0-.938-.754-1.727-1.735-1.727M71.25 95.633a1.843 1.843 0 0 0-1.844 1.836c0 1.015.828 1.84 1.844 1.84 1.02 0 1.848-.825 1.848-1.84 0-1.012-.868-1.836-1.848-1.836M52.527 80.746c-1.66 0-3.015 1.348-3.015 3 0 1.649 1.355 3 3.015 3 1.657 0 3.012-1.351 3.012-3 0-1.652-1.355-3-3.012-3m-3.09 6.11a2.7 2.7 0 0 0-2.714 2.703c0 1.5 1.207 2.699 2.715 2.699s2.71-1.2 2.71-2.7c-.035-1.5-1.242-2.703-2.71-2.703m-5.16-3.187a2.617 2.617 0 0 0-2.641 2.625 2.62 2.62 0 0 0 2.64 2.629 2.617 2.617 0 0 0 2.637-2.629 2.616 2.616 0 0 0-2.637-2.625m3.313 8.89a2.22 2.22 0 0 0-2.223 2.212c0 1.199 1.02 2.25 2.223 2.25 1.207 0 2.222-1.012 2.222-2.211 0-1.2-.976-2.25-2.222-2.25m.078 4.988c-1.02 0-1.848.824-1.848 1.836s.828 1.84 1.848 1.84a1.846 1.846 0 0 0 1.844-1.84 1.843 1.843 0 0 0-1.844-1.836m1.129 4.086c-.828 0-1.469.637-1.469 1.465 0 .824.64 1.46 1.469 1.46.793 0 1.469-.636 1.469-1.46 0-.828-.641-1.465-1.47-1.465m-4.632-2.586c-.793 0-1.394.637-1.394 1.387s.64 1.386 1.394 1.386 1.39-.636 1.39-1.386c0-.79-.636-1.387-1.39-1.387m-4.11-1.688c-.753 0-1.394.598-1.394 1.387 0 .79.606 1.387 1.395 1.387.793 0 1.394-.598 1.394-1.387s-.601-1.387-1.394-1.387m1.468 3a1.09 1.09 0 0 0-1.09 1.086 1.091 1.091 0 0 0 2.184 0 1.09 1.09 0 0 0-1.094-1.086m1.735 2.176c-.528 0-.98.45-.98.973 0 .527.452.976.98.976.527 0 .98-.449.98-.976a.97.97 0 0 0-.98-.973m2.562-.113c-.601 0-1.054.488-1.054 1.05s.488 1.048 1.054 1.048 1.055-.485 1.055-1.047c0-.563-.488-1.051-1.055-1.051m1.883 2.926a.97.97 0 0 0-.98.972c0 .563.453.977.98.977s.98-.45.98-.977a.97.97 0 0 0-.98-.972m-2.183-.375a.71.71 0 0 0-.715.71c0 .376.336.712.715.712a.74.74 0 0 0 .714-.711c0-.375-.34-.711-.714-.711m3.957 2.324c-.38 0-.68.3-.68.676 0 .375.3.675.68.675.375 0 .675-.3.675-.675s-.3-.676-.675-.676m.902-2.477c-.64 0-1.168.528-1.168 1.164 0 .637.527 1.164 1.168 1.164s1.168-.527 1.168-1.164-.488-1.164-1.168-1.164m1.547 2.703a.913.913 0 0 0-.906.899c0 .488.414.898.906.898.488 0 .902-.41.902-.898a.91.91 0 0 0-.902-.899m2.07 1.235a.594.594 0 0 0-.601.601c0 .336.261.602.601.602s.602-.266.602-.602a.594.594 0 0 0-.602-.601M43.22 89.672c-1.203 0-2.223.973-2.223 2.21 0 1.24.98 2.212 2.223 2.212 1.246 0 2.226-.973 2.226-2.211s-1.02-2.211-2.226-2.211m3.468-11.93a2.776 2.776 0 1 0 0 5.551 2.775 2.775 0 0 0 2.79-2.773c0-1.54-1.282-2.778-2.79-2.778m-6.066.34c-1.32 0-2.41 1.086-2.41 2.398a2.42 2.42 0 0 0 2.41 2.403c1.32 0 2.41-1.09 2.41-2.403s-1.09-2.398-2.41-2.398m-1.922 5.25c-1.242 0-2.261 1.012-2.222 2.211 0 1.238 1.015 2.25 2.222 2.25s2.262-1.012 2.262-2.25c0-1.234-1.02-2.211-2.262-2.211m-.375 5.25a2.063 2.063 0 0 0-2.074 2.063c0 1.125.941 2.062 2.074 2.062 1.13 0 2.07-.937 2.07-2.062s-.94-2.063-2.07-2.063m.563 4.84c-.977 0-1.73.785-1.73 1.723 0 .937.788 1.726 1.73 1.726.941 0 1.734-.789 1.734-1.726 0-.938-.754-1.723-1.734-1.723m4.41 1.387c-1.02 0-1.809.824-1.809 1.8 0 1.012.828 1.836 1.809 1.836.98 0 1.808-.824 1.808-1.836 0-.976-.792-1.8-1.808-1.8" style="stroke:none;fill-rule:nonzero;fill:#283271;fill-opacity:1" data-source="https://football-logos.cc"></path><path d="M101.656 12.902H56.672c-.98 0-1.809.825-1.809 1.801v23.438c0 .976.828 1.8 1.809 1.8h44.984c.98 0 1.809-.824 1.809-1.8V14.703c0-.976-.828-1.8-1.809-1.8m0 0" style="stroke:none;fill-rule:nonzero;fill:url(#f)"></path><use xlink:href="#g" mask="url(#h)"></use><path d="M38.586 38.027c.34.153.98.375 1.809.375 1.433.04 2.187-.488 2.75-1.761l7.613-16.875c-.305-.153-1.02-.34-1.586-.375-.977 0-2.297.187-3.125 2.172l-2.488 5.777-4.82-7.8c-.301-.075-1.055-.227-1.622-.227-1.734 0-2.676.64-3.656 1.687l-4.672 5.102 3.77 5.925c.714 1.09 1.62 1.653 3.125 1.653.98 0 1.808-.227 2.187-.414l-4.559-6.825 3.204-3.414 5.273 8.25Zm-9.945-6.414c0 1.239-.493 1.953-2.942 1.953-.336 0-.601 0-.863-.074V16.988c0-1.238.414-2.55 2.898-2.55.301 0 .641.039.907.078Zm-5.051-2.472c0 2.324-1.504 4.011-4.633 4.351-2.223.262-5.5-.039-7.047-.226a7 7 0 0 1-.074-.825c0-2.027 1.094-2.476 2.148-2.476s2.75.187 4.032.187c1.394 0 1.808-.488 1.808-.898 0-.563-.566-.828-1.62-1.016l-2.938-.562c-2.45-.45-3.77-2.137-3.77-3.938 0-2.175 1.547-3.972 4.598-4.312 2.297-.262 5.086.039 6.633.226.035.262.074.489.074.785 0 2.028-1.055 2.477-2.11 2.477-.793 0-2.035-.148-3.43-.148-1.433 0-2.034.41-2.034.863 0 .484.566.71 1.468.86l2.79.527c2.863.488 4.105 2.097 4.105 4.125m0 0" style="stroke:none;fill-rule:nonzero;fill:url(#i)"></path><use xlink:href="#j" mask="url(#k)"></use><path d="M73.477 26.59c0 4.164-2.942 6.637-6.18 6.637-1.922 0-3.504-.899-4.445-2.176v1.203c0 .523-.305.824-1.168.824-.38 0-.793-.074-1.02-.113v-16.5c0-.488.3-.824 1.168-.824.379 0 .793.074 1.02.109v6.375c.941-1.273 2.484-2.172 4.445-2.172 3.238.035 6.18 2.473 6.18 6.637m-2.227 0c0-2.774-1.883-4.688-4.367-4.688-1.695 0-3.278.973-3.996 2.399v4.578c.718 1.422 2.3 2.398 3.996 2.398 2.484.04 4.367-1.875 4.367-4.687m16.43.789h-9.91c.3 2.473 1.996 3.86 4.523 3.86 1.09 0 1.957-.223 2.75-.485.562-.188.789-.266 1.016-.266.601 0 1.015.489.906 1.688-1.168.488-2.903 1.05-4.75 1.05-3.992 0-6.707-2.699-6.707-6.675 0-3.824 2.863-6.563 6.332-6.563 3.957 0 5.875 3.04 5.875 6.153.039.336 0 .785-.035 1.238m-9.91-1.688h7.875c-.075-2.175-1.47-3.863-3.77-3.863-1.957-.039-3.766 1.313-4.105 3.863m20.382 6.637c-1.129.524-2.41.863-3.691.863-2.523 0-4.07-1.464-4.07-3.937V18.266c0-.563.34-.938 1.168-.938.379 0 .793.074 1.02.149v2.773h4.972c.035.188.074.563.074.863 0 .79-.34 1.051-.79 1.051h-4.257v6.938c0 1.464.676 2.214 2.11 2.214 1.28 0 1.996-.562 2.597-.562.68 0 .98.523.867 1.574m0 0" style="stroke:none;fill-rule:nonzero;fill:#fff;fill-opacity:1" data-source="https://football-logos.cc"></path><!-- source: https://football-logos.cc --></svg>