<svg xmlns="http://www.w3.org/2000/svg" xml:space="preserve" viewBox="0 0 500 500"><!-- Source: https://football-logos.cc --><path fill="#160029" d="M0 0h500v500H0z" data-source="https://football-logos.cc"></path><g fill="#3DF4B4" data-source="https://football-logos.cc"><path d="M366.466 286.646q.567-5.114 4.213-8.192 3.643-3.076 8.663-3.076 5.395 0 8.947 2.98 3.551 2.984 4.213 8.287h-26.036zm-11.077 5.396q0 7.386 3.078 12.972 3.073 5.587 8.71 8.663 5.63 3.076 13.208 3.076 8.71.002 14.533-4.734 5.823-4.734 7.148-12.12h-10.225q-1.046 4.075-4.26 6.298-3.221 2.226-7.956 2.225-5.963.001-9.561-3.694-3.6-3.692-3.977-10.035v-.568h36.546q.284-1.986.285-3.883-.097-7.003-3.172-12.213-3.077-5.207-8.429-8.049-5.348-2.84-12.355-2.839-6.913 0-12.26 3.076-5.351 3.079-8.332 8.712-2.98 5.634-2.981 13.113m-18.276-24.332v24.048q0 7.482-3.314 11.788-3.315 4.309-9.183 4.308-5.589 0-8.429-3.693t-2.84-10.793V267.71h-10.225v26.698q-.002 11.743 5.301 17.044t13.824 5.301q9.468.001 14.961-6.721l1.135 6.154h8.995V267.71zm-67.89 40.049q-6.346 0-10.226-4.448-3.882-4.453-3.881-11.553-.001-7.1 3.881-11.551 3.882-4.447 10.226-4.449 6.34 0 10.225 4.498 3.882 4.497 3.881 11.693.001 7.007-3.881 11.408-3.885 4.401-10.225 4.402m15.338-40.049-1.136 7.575a17.76 17.76 0 0 0-6.438-5.968q-3.976-2.174-9.468-2.175-6.534 0-11.74 3.076-5.209 3.08-8.189 8.665-2.984 5.586-2.984 12.876 0 7.577 2.936 13.114 2.933 5.539 8.142 8.522 5.207 2.983 11.836 2.983 10.51.001 15.811-7.953v5.396q0 13.54-13.918 13.54-5.394 0-8.804-2.225t-4.356-6.297h-10.416q.662 8.049 6.816 12.45 6.155 4.403 16.002 4.403 12.689-.002 18.747-5.633 6.06-5.633 6.061-15.858V267.71zm-58.346 28.594q-.096 5.68-3.645 9.089-3.553 3.407-9.895 3.408-4.167.001-6.579-1.895-2.415-1.89-2.415-5.016 0-3.596 2.555-5.446 2.556-1.845 7.291-1.845h12.687zm13.35 10.982q-3.22 0-3.22-3.409v-19.124q0-8.522-5.3-13.066-5.305-4.545-15.057-4.544-9.184 0-14.863 4.023-5.683 4.025-6.439 11.315h10.036q.568-3.217 3.457-5.16 2.885-1.94 7.338-1.94 5.017 0 7.859 2.318 2.84 2.32 2.84 6.392v2.935h-12.214q-10.13.001-15.434 4.024-5.302 4.025-5.301 11.504 0 6.629 4.923 10.416 4.922 3.787 13.066 3.786 10.51.002 16.001-8.331 0 3.788 2.082 5.776 2.084 1.988 6.817 1.988h5.396v-8.9h-1.987zm-88.284-20.64q.569-5.114 4.214-8.192 3.644-3.076 8.661-3.076 5.4 0 8.948 2.98 3.55 2.984 4.213 8.287zm-11.076 5.396q0 7.386 3.076 12.972 3.075 5.587 8.711 8.663 5.632 3.076 13.209 3.076 8.709.002 14.533-4.734 5.821-4.734 7.147-12.12h-10.226q-1.042 4.075-4.26 6.298-3.22 2.226-7.952 2.225-5.968.001-9.565-3.694-3.596-3.692-3.975-10.035v-.568h36.548q.282-1.986.284-3.883-.095-7.003-3.172-12.213-3.077-5.207-8.426-8.049-5.352-2.84-12.356-2.839-6.912 0-12.262 3.076-5.35 3.079-8.331 8.712-2.985 5.634-2.983 13.113m-3.735 24.144v-9.657h-28.499v-56.62H97.083v66.277zM292.648 214.3q-6.44 0-10.321-4.496-3.882-4.499-3.881-11.598-.001-7.103 3.881-11.6 3.882-4.495 10.321-4.496 6.437.001 10.368 4.496 3.928 4.497 3.929 11.6-.001 7.101-3.929 11.598-3.931 4.496-10.368 4.496m0 8.712q7.29.001 12.924-3.079c3.752-2.05 6.658-4.953 8.709-8.709q3.077-5.634 3.078-13.018 0-7.29-3.078-12.925c-2.051-3.752-4.957-6.673-8.709-8.756q-5.636-3.125-12.924-3.126-7.293 0-12.925 3.126t-8.709 8.756q-3.079 5.635-3.078 12.925 0 7.384 3.078 13.018 3.076 5.633 8.709 8.709 5.633 3.08 12.925 3.079m-30.153-49.046q-5.588.001-8.903 1.942-3.315 1.94-5.396 5.35l-1.135-7.291h-9.09v48.477h10.225v-24.332q0-6.344 2.841-10.462 2.839-4.119 9.184-4.119h4.544v-9.564h-2.27zm-68.967-8.332h14.393c3.911 0 7.007 1.042 9.277 3.126q3.41 3.123 3.408 8.522 0 5.302-3.456 8.473-3.456 3.174-9.325 3.172h-14.298zm-10.887-9.467v66.277h10.887v-24.05h15.242q6.82.001 12.026-2.603 5.207-2.604 8.049-7.384 2.84-4.782 2.839-11.126 0-6.342-2.839-11.126-2.842-4.78-8.049-7.386-5.206-2.602-12.026-2.603h-26.129z"></path><path d="M250 0v41.667c115.058 0 208.333 93.275 208.333 208.333H500V0zm0 458.334V500H0V250h41.664c0 115.058 93.275 208.334 208.336 208.334"></path><path d="M366.466 286.646q.567-5.114 4.213-8.192 3.643-3.076 8.663-3.076 5.395 0 8.947 2.98 3.551 2.984 4.213 8.287h-26.036zm-11.077 5.396q0 7.386 3.078 12.972 3.073 5.587 8.71 8.663 5.63 3.076 13.208 3.076 8.71.002 14.533-4.734 5.823-4.734 7.148-12.12h-10.225q-1.046 4.075-4.26 6.298-3.221 2.226-7.956 2.225-5.963.001-9.561-3.694-3.6-3.692-3.977-10.035v-.568h36.546q.284-1.986.285-3.883-.097-7.003-3.172-12.213-3.077-5.207-8.429-8.049-5.348-2.84-12.355-2.839-6.913 0-12.26 3.076-5.351 3.079-8.332 8.712-2.98 5.634-2.981 13.113m-18.276-24.332v24.048q0 7.482-3.314 11.788-3.315 4.309-9.183 4.308-5.589 0-8.429-3.693t-2.84-10.793V267.71h-10.225v26.698q-.002 11.743 5.301 17.044t13.824 5.301q9.468.001 14.961-6.721l1.135 6.154h8.995V267.71zm-67.89 40.049q-6.346 0-10.226-4.448-3.882-4.453-3.881-11.553-.001-7.1 3.881-11.551 3.882-4.447 10.226-4.449 6.34 0 10.225 4.498 3.882 4.497 3.881 11.693.001 7.007-3.881 11.408-3.885 4.401-10.225 4.402m15.338-40.049-1.136 7.575a17.76 17.76 0 0 0-6.438-5.968q-3.976-2.174-9.468-2.175-6.534 0-11.74 3.076-5.209 3.08-8.189 8.665-2.984 5.586-2.984 12.876 0 7.577 2.936 13.114 2.933 5.539 8.142 8.522 5.207 2.983 11.836 2.983 10.51.001 15.811-7.953v5.396q0 13.54-13.918 13.54-5.394 0-8.804-2.225t-4.356-6.297h-10.416q.662 8.049 6.816 12.45 6.155 4.403 16.002 4.403 12.689-.002 18.747-5.633 6.06-5.633 6.061-15.858V267.71zm-58.346 28.594q-.096 5.68-3.645 9.089-3.553 3.407-9.895 3.408-4.167.001-6.579-1.895-2.415-1.89-2.415-5.016 0-3.596 2.555-5.446 2.556-1.845 7.291-1.845h12.687zm13.35 10.982q-3.22 0-3.22-3.409v-19.124q0-8.522-5.3-13.066-5.305-4.545-15.057-4.544-9.184 0-14.863 4.023-5.683 4.025-6.439 11.315h10.036q.568-3.217 3.457-5.16 2.885-1.94 7.338-1.94 5.017 0 7.859 2.318 2.84 2.32 2.84 6.392v2.935h-12.214q-10.13.001-15.434 4.024-5.302 4.025-5.301 11.504 0 6.629 4.923 10.416 4.922 3.787 13.066 3.786 10.51.002 16.001-8.331 0 3.788 2.082 5.776 2.084 1.988 6.817 1.988h5.396v-8.9h-1.987zm-88.284-20.64q.569-5.114 4.214-8.192 3.644-3.076 8.661-3.076 5.4 0 8.948 2.98 3.55 2.984 4.213 8.287zm-11.076 5.396q0 7.386 3.076 12.972 3.075 5.587 8.711 8.663 5.632 3.076 13.209 3.076 8.709.002 14.533-4.734 5.821-4.734 7.147-12.12h-10.226q-1.042 4.075-4.26 6.298-3.22 2.226-7.952 2.225-5.968.001-9.565-3.694-3.596-3.692-3.975-10.035v-.568h36.548q.282-1.986.284-3.883-.095-7.003-3.172-12.213-3.077-5.207-8.426-8.049-5.352-2.84-12.356-2.839-6.912 0-12.262 3.076-5.35 3.079-8.331 8.712-2.985 5.634-2.983 13.113m-3.735 24.144v-9.657h-28.499v-56.62H97.083v66.277zM292.648 214.3q-6.44 0-10.321-4.496-3.882-4.499-3.881-11.598-.001-7.103 3.881-11.6 3.882-4.495 10.321-4.496 6.437.001 10.368 4.496 3.928 4.497 3.929 11.6-.001 7.101-3.929 11.598-3.931 4.496-10.368 4.496m0 8.712q7.29.001 12.924-3.079c3.752-2.05 6.658-4.953 8.709-8.709q3.077-5.634 3.078-13.018 0-7.29-3.078-12.925c-2.051-3.752-4.957-6.673-8.709-8.756q-5.636-3.125-12.924-3.126-7.293 0-12.925 3.126t-8.709 8.756q-3.079 5.635-3.078 12.925 0 7.384 3.078 13.018 3.076 5.633 8.709 8.709 5.633 3.08 12.925 3.079m-30.153-49.046q-5.588.001-8.903 1.942-3.315 1.94-5.396 5.35l-1.135-7.291h-9.09v48.477h10.225v-24.332q0-6.344 2.841-10.462 2.839-4.119 9.184-4.119h4.544v-9.564h-2.27zm-68.967-8.332h14.393c3.911 0 7.007 1.042 9.277 3.126q3.41 3.123 3.408 8.522 0 5.302-3.456 8.473-3.456 3.174-9.325 3.172h-14.298zm-10.887-9.467v66.277h10.887v-24.05h15.242q6.82.001 12.026-2.603 5.207-2.604 8.049-7.384 2.84-4.782 2.839-11.126 0-6.342-2.839-11.126-2.842-4.78-8.049-7.386-5.206-2.602-12.026-2.603h-26.129z"></path><path d="M250 0v41.667c115.058 0 208.333 93.275 208.333 208.333H500V0zm0 458.334V500H0V250h41.664c0 115.058 93.275 208.334 208.336 208.334"></path><path d="M366.466 286.646q.567-5.114 4.213-8.192 3.643-3.076 8.663-3.076 5.395 0 8.947 2.98 3.551 2.984 4.213 8.287h-26.036zm-11.077 5.396q0 7.386 3.078 12.972 3.073 5.587 8.71 8.663 5.63 3.076 13.208 3.076 8.71.002 14.533-4.734 5.823-4.734 7.148-12.12h-10.225q-1.046 4.075-4.26 6.298-3.221 2.226-7.956 2.225-5.963.001-9.561-3.694-3.6-3.692-3.977-10.035v-.568h36.546q.284-1.986.285-3.883-.097-7.003-3.172-12.213-3.077-5.207-8.429-8.049-5.348-2.84-12.355-2.839-6.913 0-12.26 3.076-5.351 3.079-8.332 8.712-2.98 5.634-2.981 13.113m-18.276-24.332v24.048q0 7.482-3.314 11.788-3.315 4.309-9.183 4.308-5.589 0-8.429-3.693t-2.84-10.793V267.71h-10.225v26.698q-.002 11.743 5.301 17.044t13.824 5.301q9.468.001 14.961-6.721l1.135 6.154h8.995V267.71zm-67.89 40.049q-6.346 0-10.226-4.448-3.882-4.453-3.881-11.553-.001-7.1 3.881-11.551 3.882-4.447 10.226-4.449 6.34 0 10.225 4.498 3.882 4.497 3.881 11.693.001 7.007-3.881 11.408-3.885 4.401-10.225 4.402m15.338-40.049-1.136 7.575a17.76 17.76 0 0 0-6.438-5.968q-3.976-2.174-9.468-2.175-6.534 0-11.74 3.076-5.209 3.08-8.189 8.665-2.984 5.586-2.984 12.876 0 7.577 2.936 13.114 2.933 5.539 8.142 8.522 5.207 2.983 11.836 2.983 10.51.001 15.811-7.953v5.396q0 13.54-13.918 13.54-5.394 0-8.804-2.225t-4.356-6.297h-10.416q.662 8.049 6.816 12.45 6.155 4.403 16.002 4.403 12.689-.002 18.747-5.633 6.06-5.633 6.061-15.858V267.71zm-58.346 28.594q-.096 5.68-3.645 9.089-3.553 3.407-9.895 3.408-4.167.001-6.579-1.895-2.415-1.89-2.415-5.016 0-3.596 2.555-5.446 2.556-1.845 7.291-1.845h12.687zm13.35 10.982q-3.22 0-3.22-3.409v-19.124q0-8.522-5.3-13.066-5.305-4.545-15.057-4.544-9.184 0-14.863 4.023-5.683 4.025-6.439 11.315h10.036q.568-3.217 3.457-5.16 2.885-1.94 7.338-1.94 5.017 0 7.859 2.318 2.84 2.32 2.84 6.392v2.935h-12.214q-10.13.001-15.434 4.024-5.302 4.025-5.301 11.504 0 6.629 4.923 10.416 4.922 3.787 13.066 3.786 10.51.002 16.001-8.331 0 3.788 2.082 5.776 2.084 1.988 6.817 1.988h5.396v-8.9h-1.987zm-88.284-20.64q.569-5.114 4.214-8.192 3.644-3.076 8.661-3.076 5.4 0 8.948 2.98 3.55 2.984 4.213 8.287zm-11.076 5.396q0 7.386 3.076 12.972 3.075 5.587 8.711 8.663 5.632 3.076 13.209 3.076 8.709.002 14.533-4.734 5.821-4.734 7.147-12.12h-10.226q-1.042 4.075-4.26 6.298-3.22 2.226-7.952 2.225-5.968.001-9.565-3.694-3.596-3.692-3.975-10.035v-.568h36.548q.282-1.986.284-3.883-.095-7.003-3.172-12.213-3.077-5.207-8.426-8.049-5.352-2.84-12.356-2.839-6.912 0-12.262 3.076-5.35 3.079-8.331 8.712-2.985 5.634-2.983 13.113m-3.735 24.144v-9.657h-28.499v-56.62H97.083v66.277zM292.648 214.3q-6.44 0-10.321-4.496-3.882-4.499-3.881-11.598-.001-7.103 3.881-11.6 3.882-4.495 10.321-4.496 6.437.001 10.368 4.496 3.928 4.497 3.929 11.6-.001 7.101-3.929 11.598-3.931 4.496-10.368 4.496m0 8.712q7.29.001 12.924-3.079c3.752-2.05 6.658-4.953 8.709-8.709q3.077-5.634 3.078-13.018 0-7.29-3.078-12.925c-2.051-3.752-4.957-6.673-8.709-8.756q-5.636-3.125-12.924-3.126-7.293 0-12.925 3.126t-8.709 8.756q-3.079 5.635-3.078 12.925 0 7.384 3.078 13.018 3.076 5.633 8.709 8.709 5.633 3.08 12.925 3.079m-30.153-49.046q-5.588.001-8.903 1.942-3.315 1.94-5.396 5.35l-1.135-7.291h-9.09v48.477h10.225v-24.332q0-6.344 2.841-10.462 2.839-4.119 9.184-4.119h4.544v-9.564h-2.27zm-68.967-8.332h14.393c3.911 0 7.007 1.042 9.277 3.126q3.41 3.123 3.408 8.522 0 5.302-3.456 8.473-3.456 3.174-9.325 3.172h-14.298zm-10.887-9.467v66.277h10.887v-24.05h15.242q6.82.001 12.026-2.603 5.207-2.604 8.049-7.384 2.84-4.782 2.839-11.126 0-6.342-2.839-11.126-2.842-4.78-8.049-7.386-5.206-2.602-12.026-2.603h-26.129z"></path><path d="M250 0v41.667c115.058 0 208.333 93.275 208.333 208.333H500V0zm0 458.334V500H0V250h41.664c0 115.058 93.275 208.334 208.336 208.334"></path></g><!-- source: https://football-logos.cc --></svg>