<svg xmlns="http://www.w3.org/2000/svg" id="Calque_2" width="3557" height="3675.99" data-name="Calque 2" version="1.1"><!-- Source: https://football-logos.cc --><defs id="defs1" data-source="https://football-logos.cc"><style id="style1">.cls-1{fill-rule:evenodd}</style></defs><g id="Calque_1-2" data-name="Calque 1" transform="translate(-219.99 -.01)" data-source="https://football-logos.cc"><path id="path1" d="M.5 4338c0 364.38.11 513.44.25 331.25s.14-480.31 0-662.5S.5 3973.63.5 4338" style="fill-rule:evenodd"></path><path id="path2" d="M1541 1091.21c0 .75 3.62 18.45 8.04 39.33s12.5 59.11 17.95 84.96 17.38 82.32 26.51 125.5 21.78 103.03 28.11 133l20.49 97c18.73 88.65 25.51 120.7 48.91 231.5 13.24 62.7 29.22 138.3 35.49 168s23.15 109.57 37.48 177.5c31.16 147.62 36.22 171.43 36.46 171.73.1.13 13.88 4.93 30.62 10.67 20.48 7.02 40.96 14.06 61.44 21.1 17.05 5.87 45.85 15.77 64 22 73.72 25.31 190.97 65.62 368 126.5 54.73 18.83 109.46 37.65 164.2 56.45l44.2 15.19 46.48-59.76 46.48-59.76-13.55-24.31c-63.9-114.63-154.48-257.62-251.62-397.21-229.03-329.09-493.49-636.6-767.69-892.68-36.07-33.68-52-47.99-52-46.71" class="cls-1"></path><path id="path3" d="M784.8 2158.04c-5.88.49-16.3 2.02-23.15 3.41-49.72 10.07-81.7 34.75-93.34 72.05l-2.81 9v451l2.29 8c11.12 38.79 45.05 64.7 97.71 74.62 15.75 2.97 47.51 3.68 64.5 1.45 15.02-1.97 28.71-5.31 41.8-10.2 12.14-4.53 15.61-6.27 26.18-13.13 20.45-13.27 33.86-31.26 40.27-54l2.18-7.74.31-137.75.31-137.75H786v51.6l3.75 1.33c7.52 2.66 21.94 10.4 29.52 15.84 4.27 3.07 12.04 9.98 17.26 15.36l9.49 9.78-.26 84.79-.26 84.79-6 2.16c-21.28 7.67-56.25 7.38-74.93-.62l-4.57-1.96v-423.98l8.25-2.61c22.85-7.22 49.46-6.96 71.5.72l6.25 2.18v95.75l4.25-.53c2.34-.29 8.3-.79 13.25-1.12 24.53-1.61 58.52-6.44 73.31-10.43l4.31-1.16-.36-47.2c-.41-54.18-.49-54.77-9.73-73.2-15.69-31.28-50.81-52.38-98.15-58.95-13.93-1.94-35-2.6-48.08-1.51" class="cls-1"></path><path id="path4" d="M1101 2163.06c-17.61 1.18-29.04 2.55-29.95 3.6-.4.46-20.88 135.39-45.49 299.84s-44.99 300.24-45.28 301.75l-.53 2.75h48.12c26.47 0 48.12-.26 48.12-.59s2.46-18.21 5.47-39.75 11.57-83.04 19.03-136.66 18.72-134.54 25.03-179.82 11.47-82.77 11.47-83.32 1.23-.86 2.74-.68l2.74.32 4.71 34 11.23 81c3.58 25.85 9.68 69.82 13.55 97.7s7.03 51.62 7.03 52.75c0 2.02-.43 2.05-30.5 2.05-16.78 0-30.5.26-30.5.57s-1.8 11.31-4 24.43-4 24.54-4 25.39c0 .97 1.56 1.93 4.25 2.62 26.14 6.65 66.58 26.34 76.41 37.22 1.77 1.95 2.8 7.71 7.23 40.28 2.84 20.9 5.39 39.01 5.66 40.25l.49 2.25h94.96v-2.25c0-2.29-84.62-596.43-85.52-600.46-.57-2.55-1.83-2.86-17.98-4.35-15.12-1.4-78.01-1.99-94.5-.89" class="cls-1"></path><path id="path5" d="M220 2468.5V2771h232.78l.54-2.25c2.49-10.41 6.45-49.47 7.36-72.5l.64-16.25H315.01v-514h-95v302.5z" class="cls-1"></path><path id="polygon5" d="M591 2771v-605h-95v605z" class="cls-1"></path><path id="path7" d="M2024.8 2914.1c-5.88.45-16.26 1.95-23.06 3.33-49.86 10.1-81.77 34.71-93.43 72.07l-2.81 9-.28 222.5c-.31 245.58-.7 229.05 5.91 246.19 12.02 31.17 44.59 54.62 88.36 63.64 15.49 3.19 25.57 4.16 43.17 4.16 48.17 0 89.22-14.26 112.95-39.25 11.94-12.57 18.26-23.74 22.6-39.94l2.23-8.32.3-137.25.3-137.25h-77.77l-77.77.02.02 16.74c.04 28.9.35 35.24 1.73 35.26 2.45.03 21.61 9.83 29.37 15.02 4.34 2.9 12.72 10.09 18.64 15.97l10.75 10.7-.25 84.9-.26 84.9-6 2.16c-21.35 7.7-56.19 7.41-74.93-.62l-4.57-1.96v-423.98l7.79-2.46c12.75-4.03 19.87-5.02 35.71-4.99 15.97.04 28.67 2.13 38.01 6.26l4.49 1.99v95.29l3.75-.54c2.06-.3 8.25-.81 13.75-1.15 23.36-1.43 58.35-6.41 73.32-10.44l4.32-1.16-.38-47.19c-.36-44.96-.48-47.57-2.59-55.19-4.55-16.48-12.32-29.51-24.82-41.61-21.77-21.09-53.66-33.48-94.86-36.87-13.47-1.11-18.34-1.1-33.7.09" class="cls-1"></path><path id="path8" d="M2350 2919.12c-12.88.79-30.01 2.54-30.55 3.11-.34.36-90.45 601.33-90.45 603.25 0 1.34 5.64 1.52 47.53 1.52 37.13 0 47.62-.27 47.96-1.25.23-.69 4.25-28.93 8.93-62.75 8.98-64.84 17.99-129.67 27-194.5 10.17-73.15 19.89-143.12 21.58-155.5 3.92-28.61 3.54-27 6.41-27 1.89 0 2.49.66 2.95 3.25.62 3.48 36.65 263.19 36.65 264.17 0 .32-13.72.58-30.48.58h-30.48l-.51 2.25c-.28 1.24-2.09 11.93-4.02 23.75s-3.72 22.43-3.98 23.57c-.42 1.86.54 2.36 9.26 4.81 24.7 6.94 55.6 22.08 70.03 34.31l3.31 2.8 5.44 39.47c2.99 21.71 5.44 40.05 5.44 40.75 0 1.02 9.71 1.28 48 1.28s48-.27 48-1.24c0-1.8-86.08-603.18-86.38-603.48-.7-.7-17.02-2.34-32.33-3.25-19.71-1.18-59.44-1.13-79.29.09" class="cls-1"></path><path id="path9" d="M220 3224.51v302.51l47.25-.26 47.25-.26.25-256.84.25-256.84 30.75.44c32.21.46 38.41 1.22 51.1 6.3l4.14 1.66v238.53l-7.57 7.19c-12.38 11.76-31.59 23.36-53.18 32.11l-8.25 3.34v51.87l24.25-.54c32.73-.73 51.06-3.91 73.2-12.71 30.11-11.96 51.5-32.06 60.57-56.92 6.1-16.72 5.98-13.73 5.98-146.1s.12-129.39-5.98-146.1c-13.7-37.53-55.03-63.2-110.88-68.85-6.21-.63-40.16-1.05-84.75-1.05h-74.39v302.51z" class="cls-1"></path><path id="path10" d="M915 3224.5V3527h95v-514.19l31.25.46c29.27.43 31.82.61 40.25 2.91 4.95 1.35 10.35 3.1 12 3.9l3 1.45.26 105.87.25 105.87-7.25 7.14c-11.75 11.55-30.65 23.18-51.95 31.94l-10.31 4.24-.29 25.33-.29 25.33 3.92 6.63c27.32 46.27 51.87 113.47 69.58 190.38l.63 2.75h49.48c27.21 0 49.48-.38 49.48-.85 0-3.51-14.54-62.11-21.13-85.15-11.72-40.98-29.03-86.49-44.83-117.94-2.22-4.41-4.03-8.47-4.03-9.01s2.54-2.2 5.65-3.66c21.86-10.34 41.65-30.65 49.4-50.69 6.74-17.42 6.45-11.49 6.45-134.2s.15-116.92-5.63-132.94c-4.13-11.43-10.03-20.73-19.23-30.32-20.94-21.82-52.19-35.05-92.49-39.18-6.3-.64-39.51-1.06-84.75-1.06h-74.39v302.5z" class="cls-1"></path><path id="polygon10" d="M1321 3013v514h95v-514h95v-91h-285v91z" class="cls-1"></path><path id="path11" d="M1555 3183.04c0 234.58.16 261.82 1.59 268.75 9.2 44.65 49.68 74.5 111.39 82.16 12.35 1.53 39.12 1.28 52.72-.49 49.7-6.47 86.62-28.9 101.86-61.88 1.93-4.18 4.5-11.08 5.7-15.34l2.19-7.74.29-263.25.29-263.25H1736l-.25 257.25-.25 257.25-6 2.16c-20.91 7.54-52.09 7.54-73 0l-6-2.16-.25-257.25L1650 2922h-95z" class="cls-1"></path><path id="path12" d="M2600 3224.5V3527l116.75-.25 116.75-.25 1.68-10c1.95-11.6 5.43-48.05 6.42-67.25l.68-13.25H2695v-514h-95z" class="cls-1"></path><path id="path13" d="M2287.13 1.73c.75.95 10.39 11.86 21.42 24.25 111.85 125.67 216.47 253.94 311.79 382.26 17.37 23.39 17.6 23.76 15.4 25.14-1.23.77-132.51 73.96-291.73 162.64s-289.9 161.6-290.38 162.04 8.75 11.52 20.51 24.62C2253.23 982.11 2429.27 1199.87 2591 1422c486.08 667.62 883.56 1423.54 1179.03 2242.25 2.59 7.19 4.77 11.75 5.6 11.75 1.15 0 1.36-112.15 1.36-717.51v-717.51l-10.1-24.24c-45.72-109.71-104.87-240.69-155.67-344.74l-21.97-45c-13.47-27.59-53.04-105.11-74.01-145-133.35-253.59-284.45-501.73-447.57-735-10.96-15.67-20.12-29-20.36-29.61s8.03-5.84 18.38-11.62c19.34-10.81 101.63-56.68 315.3-175.77 67.38-37.55 143.54-80.01 169.25-94.35s46.75-26.48 46.75-26.97c0-1.07-45.72-70.16-64.3-97.17-123.86-180.06-250.85-338.98-394.56-493.75L3121.65.01H2703.7c-395.72 0-417.88.09-416.58 1.73M1541 1091.21c0 .75 3.62 18.45 8.04 39.33s12.5 59.11 17.95 84.96 17.38 82.32 26.51 125.5 21.78 103.03 28.11 133l20.49 97c18.73 88.65 25.51 120.7 48.91 231.5 13.24 62.7 29.22 138.3 35.49 168s23.15 109.57 37.48 177.5c31.16 147.62 36.22 171.43 36.46 171.73.1.13 13.88 4.93 30.62 10.67 20.48 7.02 40.96 14.06 61.44 21.1 17.05 5.87 45.85 15.77 64 22 73.72 25.31 190.97 65.62 368 126.5 54.73 18.83 109.46 37.65 164.2 56.45l44.2 15.19 46.48-59.76 46.48-59.76-13.55-24.31c-63.9-114.63-154.48-257.62-251.62-397.21-229.03-329.09-493.49-636.6-767.69-892.68-36.07-33.68-52-47.99-52-46.71M784.8 2158.04c-5.88.49-16.3 2.02-23.15 3.41-49.72 10.07-81.7 34.75-93.34 72.05l-2.81 9v451l2.29 8c11.12 38.79 45.05 64.7 97.71 74.62 15.75 2.97 47.51 3.68 64.5 1.45 15.02-1.97 28.71-5.31 41.8-10.2 12.14-4.53 15.61-6.27 26.18-13.13 20.45-13.27 33.86-31.26 40.27-54l2.18-7.74.31-137.75.31-137.75H786v51.6l3.75 1.33c7.52 2.66 21.94 10.4 29.52 15.84 4.27 3.07 12.04 9.98 17.26 15.36l9.49 9.78-.26 84.79-.26 84.79-6 2.16c-21.28 7.67-56.25 7.38-74.93-.62l-4.57-1.96v-423.98l8.25-2.61c22.85-7.22 49.46-6.96 71.5.72l6.25 2.18v95.75l4.25-.53c2.34-.29 8.3-.79 13.25-1.12 24.53-1.61 58.52-6.44 73.31-10.43l4.31-1.16-.36-47.2c-.41-54.18-.49-54.77-9.73-73.2-15.69-31.28-50.81-52.38-98.15-58.95-13.93-1.94-35-2.6-48.08-1.51m316.2 5.03c-17.61 1.18-29.04 2.55-29.95 3.6-.4.46-20.88 135.39-45.49 299.84s-44.99 300.24-45.28 301.75l-.53 2.75h48.12c26.47 0 48.12-.26 48.12-.59s2.46-18.21 5.47-39.75 11.57-83.04 19.03-136.66 18.72-134.54 25.03-179.82 11.47-82.77 11.47-83.32 1.23-.86 2.74-.68l2.74.32 4.71 34 11.23 81c3.58 25.85 9.68 69.82 13.55 97.7s7.03 51.62 7.03 52.75c0 2.02-.43 2.05-30.5 2.05-16.78 0-30.5.26-30.5.57s-1.8 11.31-4 24.43-4 24.54-4 25.39c0 .97 1.56 1.93 4.25 2.62 26.14 6.65 66.58 26.34 76.41 37.22 1.77 1.95 2.8 7.71 7.23 40.28 2.84 20.9 5.39 39.01 5.66 40.25l.49 2.25h94.96v-2.25c0-2.29-84.62-596.43-85.52-600.46-.57-2.55-1.83-2.86-17.98-4.35-15.12-1.4-78.01-1.99-94.5-.89M220 2468.5V2771h232.78l.54-2.25c2.49-10.41 6.45-49.47 7.36-72.5l.64-16.25H315.01v-514h-95v302.5zm276 0V2771h95v-605h-95zm190.97 445.46c-60.38 4.99-103.34 31.59-116.78 72.32-1.7 5.14-3.54 13.64-4.16 19.22-.8 7.18-1.02 70.8-.77 225.5.38 237.55-.11 219.5 6.41 235.84 16.96 42.46 66.66 68.16 131.83 68.16 50.95 0 94.07-16.23 117.48-44.2 6.8-8.13 15.05-23.88 17.43-33.3 3.61-14.27 3.7-21.13 3.34-240-.33-198.42-.48-215.53-2.06-221.84-12.33-49.56-59.78-79.57-129.69-82.01-7.42-.26-17.79-.12-23.03.32m1337.83.13c-5.88.45-16.26 1.95-23.06 3.33-49.86 10.1-81.77 34.71-93.43 72.07l-2.81 9-.28 222.5c-.31 245.58-.7 229.05 5.91 246.19 12.02 31.17 44.59 54.62 88.36 63.64 15.49 3.19 25.57 4.16 43.17 4.16 48.17 0 89.22-14.26 112.95-39.25 11.94-12.57 18.26-23.74 22.6-39.94l2.23-8.32.3-137.25.3-137.25h-77.77l-77.77.02.02 16.74c.04 28.9.35 35.24 1.73 35.26 2.45.03 21.61 9.83 29.37 15.02 4.34 2.9 12.72 10.09 18.64 15.97l10.75 10.7-.25 84.9-.26 84.9-6 2.16c-21.35 7.7-56.19 7.41-74.93-.62l-4.57-1.96v-423.98l7.79-2.46c12.75-4.03 19.87-5.02 35.71-4.99 15.97.04 28.67 2.13 38.01 6.26l4.49 1.99v95.29l3.75-.54c2.06-.3 8.25-.81 13.75-1.15 23.36-1.43 58.35-6.41 73.32-10.44l4.32-1.16-.38-47.19c-.36-44.96-.48-47.57-2.59-55.19-4.55-16.48-12.32-29.51-24.82-41.61-21.77-21.09-53.66-33.48-94.86-36.87-13.47-1.11-18.34-1.1-33.7.09m325.21 5c-12.88.79-30.01 2.54-30.55 3.11-.34.36-90.45 601.33-90.45 603.25 0 1.34 5.64 1.52 47.53 1.52 37.13 0 47.62-.27 47.96-1.25.23-.69 4.25-28.93 8.93-62.75 8.98-64.84 17.99-129.67 27-194.5 10.17-73.15 19.89-143.12 21.58-155.5 3.92-28.61 3.54-27 6.41-27 1.89 0 2.49.66 2.95 3.25.62 3.48 36.65 263.19 36.65 264.17 0 .32-13.72.58-30.48.58h-30.48l-.51 2.25c-.28 1.24-2.09 11.93-4.02 23.75s-3.72 22.43-3.98 23.57c-.42 1.86.54 2.36 9.26 4.81 24.7 6.94 55.6 22.08 70.03 34.31l3.31 2.8 5.44 39.47c2.99 21.71 5.44 40.05 5.44 40.75 0 1.02 9.71 1.28 48 1.28s48-.27 48-1.24c0-1.8-86.08-603.18-86.38-603.48-.7-.7-17.02-2.34-32.33-3.25-19.71-1.18-59.44-1.13-79.29.09M220 3224.51v302.51l47.25-.26 47.25-.26.25-256.84.25-256.84 30.75.44c32.21.46 38.41 1.22 51.1 6.3l4.14 1.66v238.53l-7.57 7.19c-12.38 11.76-31.59 23.36-53.18 32.11l-8.25 3.34v51.87l24.25-.54c32.73-.73 51.06-3.91 73.2-12.71 30.11-11.96 51.5-32.06 60.57-56.92 6.1-16.72 5.98-13.73 5.98-146.1s.12-129.39-5.98-146.1c-13.7-37.53-55.03-63.2-110.88-68.85-6.21-.63-40.16-1.05-84.75-1.05h-74.39v302.51zm695-.01V3527h95v-514.19l31.25.46c29.27.43 31.82.61 40.25 2.91 4.95 1.35 10.35 3.1 12 3.9l3 1.45.26 105.87.25 105.87-7.25 7.14c-11.75 11.55-30.65 23.18-51.95 31.94l-10.31 4.24-.29 25.33-.29 25.33 3.92 6.63c27.32 46.27 51.87 113.47 69.58 190.38l.63 2.75h49.48c27.21 0 49.48-.38 49.48-.85 0-3.51-14.54-62.11-21.13-85.15-11.72-40.98-29.03-86.49-44.83-117.94-2.22-4.41-4.03-8.47-4.03-9.01s2.54-2.2 5.65-3.66c21.86-10.34 41.65-30.65 49.4-50.69 6.74-17.42 6.45-11.49 6.45-134.2s.15-116.92-5.63-132.94c-4.13-11.43-10.03-20.73-19.23-30.32-20.94-21.82-52.19-35.05-92.49-39.18-6.3-.64-39.51-1.06-84.75-1.06h-74.39v302.5zm311-257v45.5h95v514h95v-514h95v-91h-285zm329 215.54c0 234.58.16 261.82 1.59 268.75 9.2 44.65 49.68 74.5 111.39 82.16 12.35 1.53 39.12 1.28 52.72-.49 49.7-6.47 86.62-28.9 101.86-61.88 1.93-4.18 4.5-11.08 5.7-15.34l2.19-7.74.29-263.25.29-263.25H1736l-.25 257.25-.25 257.25-6 2.16c-20.91 7.54-52.09 7.54-73 0l-6-2.16-.25-257.25L1650 2922h-95zm1045 41.46V3527l116.75-.25 116.75-.25 1.68-10c1.95-11.6 5.43-48.05 6.42-67.25l.68-13.25H2695v-514h-95zM688.5 3005.1c-8.38 1.19-19.22 3.88-24.25 6.02l-4.25 1.81v423.17l3.53 1.48c5.63 2.35 19.14 5.28 29.87 6.47 14.95 1.66 37.31-1.27 49.91-6.53l3.68-1.54v-423.04l-4.25-1.81c-13.59-5.78-37.38-8.42-54.25-6.02" style="fill-rule:evenodd;fill:#00235a;display:inline"></path></g><!-- source: https://football-logos.cc --></svg>