<svg xmlns="http://www.w3.org/2000/svg" version="1.1" viewBox="4 4 1456 2044"><!-- Source: https://football-logos.cc -->
<path transform="translate(668,4)" d="m0 0h129l43 2 78 5 64 6 55 7 58 9 48 9 51 11 40 10 43 12 38 12 34 12 21 9 16 9 14 10 14 12 7 7 11 14 10 16 7 15 7 22 4 17v1595l-9 30-6 15-8 14-12 16-12 13-8 7-13 10-20 12-20 9-42 15-44 14-52 14-42 10-53 11-46 8-53 8-61 7-117 10h-209l-74-6-55-5-51-6-65-10-48-9-50-11-44-11-49-14-46-15-32-12-23-10-17-9-15-11-13-11-10-10-11-14-8-13-6-12-7-21-4-18-1-8v-456l1-868 1-242 2-20 5-23 7-19 8-15 10-14 12-14 8-8 14-11 17-11 23-11 38-14 51-16 65-17 51-11 41-8 57-9 45-6 45-5 77-6 55-3z" fill="#FCFCFC" data-source="https://football-logos.cc"></path>
<path transform="translate(668,4)" d="m0 0h129l43 2 78 5 64 6 55 7 58 9 48 9 51 11 40 10 43 12 38 12 34 12 21 9 16 9 14 10 14 12 7 7 11 14 10 16 7 15 7 22 4 17v1595l-9 30-6 15-8 14-12 16-12 13-8 7-13 10-20 12-20 9-42 15-44 14-52 14-42 10-53 11-46 8-53 8-61 7-117 10h-209l-74-6-55-5-51-6-65-10-48-9-50-11-44-11-49-14-46-15-32-12-23-10-17-9-15-11-13-11-10-10-11-14-8-13-6-12-7-21-4-18-1-8v-456l1-868 1-242 2-20 5-23 7-19 8-15 10-14 12-14 8-8 14-11 17-11 23-11 38-14 51-16 65-17 51-11 41-8 57-9 45-6 45-5 77-6 55-3zm9 85-68 3-64 5-48 5-47 6-54 9-46 9-44 10-46 12-49 15-32 11-30 12-17 8-10 7-12 11-7 10-5 11-3 12-1 155 1 880 4 16 7 14 9 10 12 9 16 8 27 11 34 12 38 12 44 12 46 11 60 12 49 8 58 8 37 4 44 4 65 4 33 1h123l46-2 48-3 25-2h6l9 8 21 14 21 11 21 8 23 6 17 3 13 1h30l18-2 23-5 27-9 19-9 17-10 11-8 11-9 18-18 7-8 10-13 10-15 5-8 41-14 26-10 16-8 12-9 8-9 8-14 4-13 1-8v-1033l-2-13-5-13-8-11-8-8-14-9-17-8-34-13-37-12-29-9-33-9-37-9-45-10-50-9-51-8-38-5-39-4-71-6-71-3z" fill="#00823E"></path>
<path transform="translate(668,4)" d="m0 0h129l43 2 78 5 64 6 55 7 58 9 48 9 51 11 40 10 43 12 38 12 34 12 21 9 16 9 14 10 14 12 7 7 11 14 10 16 7 15 7 22 4 17v1595l-9 30-6 15-8 14-12 16-12 13-8 7-13 10-20 12-20 9-42 15-44 14-52 14-42 10-53 11-46 8-53 8-61 7-117 10h-209l-74-6-55-5-51-6-65-10-48-9-50-11-44-11-49-14-46-15-32-12-23-10-17-9-15-11-13-11-10-10-11-14-8-13-6-12-7-21-4-18-1-8v-456l1-868 1-242 2-20 5-23 7-19 8-15 10-14 12-14 8-8 14-11 17-11 23-11 38-14 51-16 65-17 51-11 41-8 57-9 45-6 45-5 77-6 55-3zm-3 52-34 1-68 4-57 5-38 4-45 6-62 10-36 7-41 9-40 10-32 9-39 12-32 12-20 8-17 10-13 10-11 11-10 14-7 14-5 16-1 5-1 17v1515l2 19 4 15 10 19 8 11 12 12 14 10 17 9 23 9 35 13 38 12 50 14 32 8 42 9 46 9 57 9 37 5 35 4 64 5 47 3 52 2h108l52-2 66-4 56-5 35-4 51-7 48-8 49-10 44-10 49-13 43-13 40-14 24-10 16-9 13-11 10-10 9-13 7-14 5-15 2-13v-1413l-1-126-3-17-6-16-6-11-9-12-12-12-10-7-16-9-33-13-36-12-41-12-38-10-39-9-61-12-63-10-45-6-48-5-61-5-56-3-33-1z" fill="#FCFCFC"></path>
<path transform="translate(296,228)" d="m0 0h16l21 2 62 9 39 7 49 10 50 12 38 10 58 17 63 21 38 14 30 12 26 11 24 11 33 16 22 12 27 16 12 8 14 10 13 10 12 11 13 13 10 14 8 16 3 12 1 9-3 16-7 16-6 10-8 10-9 10-8 8-11 9-12 10-18 13-27 18-19 12-28 17-17 11-22 15-14 11-10 9-7 10-1 2v6l3 5 10 6 24 8 28 7 36 7 37 7 51 10 40 9 35 10 24 8 30 13 19 11 16 12 10 10 9 14 5 11 4 15v18l-3 14-5 14-8 16-9 14-10 13-12 14-12 12-1 2h-2v2h-2v2h-2l-2 4-8 8-8 7-11 10-11 9-10 9-9 7-17 14-25 20-14 11-16 13-14 11-16 13-22 18-11 10-11 9-13 12-6 5-20 20-7 8-9 10-8 15-5 17-1 6v29l4 15 5 13 6 14 1 9-4 9-8 8-10 3-14-3-21-9-14-8-16-12-16-15-12-14-10-15-9-17-6-18-3-17v-28l3-18 5-15 9-17 11-14 15-15 22-18 13-10 20-14 40-26 24-15 38-24 15-10 19-13 13-10 14-11 14-12 12-12 10-13 6-10 4-11 2-8v-10l-3-12-6-11-10-13-10-8-14-8-11-5-21-7-20-5-36-6-31-4-72-6-43-4-35-5-22-5-17-5-17-8-9-7-8-8-6-12v-11l3-10 8-11 12-12 17-13 15-10 24-15 25-14 28-15 22-12 26-14 36-20 26-16 11-7 12-8 16-11 9-7 13-11 12-12 11-16 4-11 1-11-4-11-7-10-7-7-13-9-14-8-20-9-24-9-22-7-33-9-48-11-43-8-47-8-108-15-23-3-23-6-29-10-28-12-24-11-24-12-10-6-11-6-17-10-19-13-13-10-11-9-10-10-8-12-1-3v-10l3-5 6-5 7-3z" fill="#00823E"></path>
<path transform="translate(1048,1535)" d="m0 0h141l16 2 15 4 9 4 11 6 12 11 8 11 5 11 4 15v25l-4 17-7 14-9 10-8 7-7 4 3 3 10 6 10 8 9 9 8 14 4 14 1 7v24l-2 14-5 16-6 12-8 10-10 10-14 9-14 6-20 5-20 2h-155l-1-1v-284l3-9 9-10 8-5z" fill="#FCFCFC"></path>
<path transform="translate(561,852)" d="m0 0 13 1 16 5 20 8 16 8 12 7 14 10 7 6 7 8 7 9 8 16 3 11v18l-4 16-8 16-7 11-11 13-7 8-13 13-11 9-20 15-15 10-22 14-24 14-28 15-33 17-32 15-28 13-24 13-23 14-15 10-17 12-14 11-17 14-13 12-24 24-9 11-12 16-13 20-9 10-8 5h-14l-8-4-7-8-4-10-4-16-2-13v-25l4-24 7-21 10-21 10-16 10-13 10-11 3-4h2l2-4h2l2-4 8-7 14-12 17-12 16-10 21-12 29-14 26-11 29-13 50-24 22-12 19-11 19-12 13-11 7-7 9-13 7-14 5-18 1-6v-17l-4-15-5-15v-9l6-7z" fill="#EE7508"></path>
<path transform="translate(470,1534)" d="m0 0h42l7 10 10 17 16 27 17 29 10 17 12 20 17 29 16 27 9 15 10 17 2 1v-208l2-1h60l1 1 1 11v286l-1 12-1 1h-64l-6-7-14-24-16-26-13-22-14-24-16-27-9-15-13-22-9-15-13-22-4-5v207l-2 2h-61l-2-2v-272l1-13 5-10 5-6 9-6z" fill="#FCFCFC"></path>
<path transform="translate(768,1535)" d="m0 0h132l15 2 14 4 16 8 9 7 5 5 8 9 8 16 5 16 2 13 1 13v12l-3 24-4 15-5 12-9 14-6 7-14 10-13 6-15 4-14 2-89 1-2 109-2 1h-62l-1-1v-284l7-14 8-7z" fill="#FCFCFC"></path>
<path transform="translate(668,4)" d="m0 0h129l43 2 78 5 64 6 55 7 58 9 48 9 51 11 40 10 43 12 38 12 34 12 21 9 16 9 14 10 14 12 7 7 11 14 10 16 7 15 7 22 4 17v1595l-9 30-6 15-8 14-12 16-12 13-8 7-13 10-20 12-20 9-42 15-44 14-52 14-42 10-53 11-46 8-53 8-61 7-117 10h-209l-74-6-55-5-51-6-65-10-48-9-50-11-44-11-49-14-46-15-32-12-23-10-17-9-15-11-13-11-10-10-11-14-8-13-6-12-7-21-4-18-1-8v-456l1-868 1-242 2-20 5-23 7-19 8-15 10-14 12-14 8-8 14-11 17-11 23-11 38-14 51-16 65-17 51-11 41-8 57-9 45-6 45-5 77-6 55-3zm30 8-48 1-38 2-48 3-38 3-52 5-32 4-15 2-27 4-12 2-27 4-23 5-13 2-21 4-36 8-36 9-29 8-20 6-36 12-35 14-16 8-12 7-10 7-11 9-7 6-4 5v2l-3 1-9 12-8 13-8 17-5 17-3 19-1 14-2 103-2 10-2 17-1 1078v251h1l2 36 1 46 2 31 3 16 6 17 4 9 7 13 7 10 4 6 5 5 7 8 20 16 9 5 19 10 25 10 22 8 20 7 24 8 19 5 15 4 6 2 76 19 20 4 47 9 55 9 51 7 34 4 77 6 69 4 22 1h92l33-1 79-5 38-3 42-4 23-3 28-3 18-3 14-1 6-2 19-2 6-2 17-2 12-3 16-3 40-8 37-9 26-7 9-2 5-2 12-3 26-8 23-7 28-10 20-8 16-8 12-7 14-10v-2l4-2 8-7 7-8 13-18 5-9 9-21 5-17 2-16 1-24v-1235l-1-258-1-65-2-15-5-18-8-18-9-15-11-13-9-10-10-9-20-14-21-10-26-10-47-16-19-6-26-7-28-7-19-5-15-3-28-6-20-4-17-3-18-3-11-2-25-4-52-7-59-6-47-4-46-3-73-3z" fill="#AEACB0"></path>
<path transform="translate(959,168)" d="m0 0h15l19 3 10 4 16 8 15 10 12 11 11 11 11 15 11 18 8 16 3 10 3 8 4 19 1 7v32l-4 19-6 16-10 16-12 12-13 8-12 5-16 3h-14l-20-4-13-5-12-6-17-12-13-12-10-11-11-15-12-21-4-8-5-15-4-16-2-10-1-11v-19l2-16 6-22 9-16 6-8 7-7 14-9 5-3 15-4z" fill="#035BA7"></path>
<path transform="translate(210,1535)" d="m0 0h41l1 1 1 250 150 1 2 3v52l-2 3h-215l-2-3v-273l3-14 6-10 7-6z" fill="#FCFCFC"></path>
<path transform="translate(55,1826)" d="m0 0 4 2 9 10 6 7 11 9 13 9 17 9 23 9 36 13 40 13 55 15 52 12 45 9 47 8 79 11 31 4 1 4-5 43h-12l-56-7-52-8-44-8-53-11-60-15-47-14-33-11-34-13-26-12-18-10-14-10-10-9-4-7z" fill="#00974A"></path>
<path transform="translate(1407,1830)" d="m0 0h1v53l-6 8-10 9-19 12-15 8-25 11-21 8-34 12-33 10-44 12-46 11-53 11-52 9-55 8-43 5h-6l-1-1-5-45 3-2 43-5 52-7 54-9 41-8 46-10 39-10 39-11 36-12 25-9 31-12 17-9 14-10 10-9 9-9 6-8z" fill="#ED0E1A"></path>
<path transform="translate(998,1219)" d="m0 0h11l20 7 42 17 18 8 6 7 1 3-1 31-3 56-5 10-8 6-29 15-19 10-9 4-11 1-11-4-25-12-20-10-7-6-4-7-9-48-1-7v-19l9-11 18-18 8-7 20-20z" fill="#C9191D"></path>
<path transform="translate(1459,1522)" d="m0 0h1v303l-9 30-6 15-8 14-12 16-12 13-8 7-13 10-20 12-20 9-42 15-44 14-52 14-42 10-53 11-46 8-53 8-61 7-117 10h-209l-74-6-55-5-51-6-65-10-48-9-50-11-44-11-49-14-46-15-32-12-23-10-17-9-15-11-13-11-10-10-11-14-8-13-6-12-7-21-4-18-1-8 1-78 1-29 1-49 1-7h1v53h1l2 40 1 46 2 31 3 16 6 17 4 9 7 13 7 10 3 4v2l3 1 7 8 5 5 12 10 5 4 9 5 19 10 25 10 22 8 20 7 24 8 19 5 15 4 6 2 76 19 20 4 47 9 55 9 51 7 34 4 77 6 69 4 22 1h92l33-1 79-5 38-3 42-4 23-3 28-3 18-3 14-1 6-2 19-2 6-2 17-2 12-3 16-3 40-8 37-9 26-7 9-2 5-2 12-3 26-8 23-7 28-10 20-8 16-8 12-7 12-9h2v-2l10-8 9-10 10-14 6-9 10-24 5-17 2-16 1-24 1-186h4l1-2 1-80z" fill="#AFACB0"></path>
<path transform="translate(60,241)" d="m0 0h1l1 11 1 22 1 111v52l1 4v376l-1 2 1 18-1 2 1 18-1 2 1 18v346l1 37v23l1 19v59l-1 23 1 6-1 7v15l-1 7-1 237v48l1 25-1 28v20l2 16 3 8 2 11-2 1-8-17-4-18-1-13v-413l1-1e3 1-84 1-25z" fill="#007635"></path>
<path transform="translate(1112,1708)" d="m0 0h59l15 2 14 7 7 8 5 11 1 13-2 13-6 12-8 7-12 5-7 2-13 1h-79l-1-1v-58l1-21z" fill="#00823E"></path>
<path transform="translate(837,1588)" d="m0 0h42l17 4 11 7 4 5 5 10 3 12v14l-4 15-5 8-5 5-9 6-12 3h-74l-1-1 1-87z" fill="#00823E"></path>
<path transform="translate(1115,1588)" d="m0 0h50l18 3 10 5 6 7 5 12v12l-4 11-7 8-12 6-9 2h-86l-1-2 1-63z" fill="#00823E"></path>
<path transform="translate(1173,1096)" d="m0 0h7l11 4 11 7 12 11 9 11 9 13 9 17 8 24 2 10v8l-5 13-4 6-3 2-7-1-18-11-27-18-8-7-4-7-5-25-7-38v-12l5-5z" fill="#EE7508"></path>
<path transform="translate(1375,262)" d="m0 0h1l3 32v20l1 50 1 12 1 167v84l-1 419-1 33-1 72-1 31 1 77-2 31-6 16-7 9h-3l2-5 5-11 3-10 2-16 1-1e3z" fill="#007534"></path>
<path transform="translate(998,1219)" d="m0 0h11l20 7 10 4v3l3 1-4 4-4 1v2l-6 4-5 6-11 9-13 13h-2l-1 3-19 19-2 3h-2v2h-2v2h-2v2h-2v2h-2l-2 4-8 8-6 8-4 5-3-1-2 3-6-33v-19l9-11 18-18 8-7 20-20z" fill="#ED0E1A"></path>
<path transform="translate(1453,318)" d="m0 0h1l3 15 1 38v233l1 19 1 4v385l-1 103-1 12-2 2-1-6h-1l-1-13z" fill="#A3A4A8"></path>
<path transform="translate(6,390)" d="m0 0h1l1 5v1261l-1 49-1 29-1 68h-1v-446l1-868z" fill="#007534"></path>
<path transform="translate(1223,1361)" d="m0 0h6l5 6v11l-7 12-8 10-13 12-16 11-17 10-19 9-20 8-12 4h-5l8-16 6-11 10-16 8-7 40-24 26-16z" fill="#035CA6"></path>
<path transform="translate(1459,1012)" d="m0 0h1v510l-1 1-1 80-4 5v-3h-2l-1-226v-100l1-169h2l1 9h1l1 6 1-10z" fill="#AEABAF"></path>
<path transform="translate(94,246)" d="m0 0h1v1030h-1l-1-25-1-28v-942l1-27z" fill="#00984B"></path>
<path transform="translate(1406,238)" d="m0 0h1l1 142v1397l-1 8h-1v-53l-1-164v-1237l-1-27z" fill="#00984B"></path>
<path transform="translate(1087,1334)" d="m0 0h3l1 17-6 9-10 6-25 13-19 10-9 4-11 1-11-4-25-12-20-10-7-6-1-10h4l4 6 8 5v2l7 2 9 3 20 8 13 2 18-6 11-5 30-16 7-1v-2h2v-2h2l1-8z" fill="#ED101A"></path>
<path transform="translate(6,1197)" d="m0 0h1l1 37v422l-1 49-1 29-1 68h-1v-446l1-121z" fill="#007438"></path>
<path transform="translate(703,1539)" d="m0 0 4 4 1 14 1 5 1 17v170l-1 38v50l-4 5h-2z" fill="#007534"></path>
<path transform="translate(253,1541)" d="m0 0h3l2 18 1 27v194l1 5-7 1z" fill="#007534"></path>
<path transform="translate(186,1564)" d="m0 0h1v278l1 2 213 1v1h-214l-2-2-1-11-1-55v-114l1-93z" fill="#00984B"></path>
<path transform="translate(516,1538)" d="m0 0 5 2 6 10v4h2l2 4 2 1 7 14 3 4v2l3 1 2 6 5 8v2h2l8 16 4 6 4 7v2h2l7 14 7 9 7 10 5 8 3 7 4 7 1 4h2l7 16 5 10-3 1-9-15-34-58-8-13-14-24-17-29-17-28-3-5z" fill="#007B38"></path>
<path transform="translate(1454,1455)" d="m0 0 1 3 3-1 1 6v59l-1 81-4 5-1-3v-149z" fill="#A3A4A8"></path>
<path transform="translate(511,1690)" d="m0 0h2l2 10 1 17 1 31v35l-1 19v14l-1 17-2 8-3-1v-93z" fill="#007534"></path>
<path transform="translate(652,2040)" d="m0 0 20 1h115l26-1h24l4 2-8 2-17 1-47 1h-63l-57-2v-3z" fill="#A3A4A8"></path>
<path transform="translate(743,1560)" d="m0 0h1l1 284 59 1v1h-60l-2-7-1-108v-136l1-31z" fill="#00984B"></path>
<path transform="translate(212,1908)" d="m0 0 9 1 52 14 43 10 4 2v2l5 1h10v3l-7 1-8-2-11-1-7-3-9-1-10-3-11-3-10-3-18-4-6-2-10-2-8-3v-2l-6-1-3-3z" fill="#008741"></path>
<path transform="translate(811,1590)" d="m0 0 8 1-3 6 1 32v34l-1 1v10l2 1-1 1h-6l-1-2v-75z" fill="#007635"></path>
<path transform="translate(443,1578)" d="m0 0h1l1 12v253l1 1h61l2-1-1 3h-63l-2-2-1-87v-113z" fill="#00984B"></path>
<path transform="translate(811,1736)" d="m0 0 4 1 1 4-1 1 1 16 1 5-1 33 1 11-1 2 1 18v8l-4 9h-2l-1-14z" fill="#007534"></path>
<path transform="translate(665,56)" d="m0 0h126l33 1 18 1v1l-19 1-51-1h-40l-56 1h-3l-9-1h-32l-17 1h-19v-1l35-2z" fill="#008942"></path>
<path transform="translate(982,1608)" d="m0 0 3 3 3 13 1 26-3 11-2 12-5 13-5 8-3 6h-2l-2 4h-2l-1 3-2-1 2-5 8-14 5-15 3-13 3-18v-14z" fill="#007836"></path>
<path transform="translate(82,185)" d="m0 0 1 4h-2v2h-2l-1 6-2 4-2 5-6 13-1 3h-2l-3 16-2 4-1 25-1 84h-1l-1-80v-21l1-17 4-16 5-12 8-13z" fill="#007836"></path>
<path transform="translate(732,58)" d="m0 0h54l37 1 5 2v1l-12 1h-47l-2-1h-17l-4 1v-2l-10 1-25-1-11 1h-25l1-3z" fill="#007534"></path>
<path transform="translate(1087,1711)" d="m0 0h7l-1 7h-2l2 28v25l-1 4v8l-1 3 2 1h-6l-1-1-1-56z" fill="#007735"></path>
<path transform="translate(207,1847)" d="m0 0h190v2l-5 2h-7l-4-1-5 1h-29l-5-1-4 1-5-1h-25l-18-1h-73l-10-1z" fill="#007534"></path>
<path transform="translate(292,102)" d="m0 0 4 1-1 2-8 2-20 4h-3v2l-7 2-8 1-8 3h-6v2l-8 2-7 1v1h-8v-4l25-7 38-10z" fill="#007F3B"></path>
<path transform="translate(1087,1591)" d="m0 0h9l-3 5-1 4 1 26-2 18-1 1v6l-4-1v-53z" fill="#007735"></path>
<path transform="translate(432,356)" d="m0 0 7 1 8 4 10 3 22 6 9 3 18 4 5 4 3 2-13-1-23-6-29-10-17-7z" fill="#007C3B"></path>
<path transform="translate(267,1925)" d="m0 0 19 1 30 7 4 2v2l5 1h10v3l-7 1-8-2-11-1-7-3-9-1-10-3-11-3-5-2z" fill="#00843F"></path>
<path transform="translate(637,1535)" d="m0 0h1v208l-4-2 1-2 2 1-1-95v-107z" fill="#00974A"></path>
<path transform="translate(106,1313)" d="m0 0 4 1 7 7 15 10 20 9 21 8 1 3-3 1-6-3-6-1-12-5-11-5-12-6-4-3v-2l-5-2v-2l-4-2-5-6z" fill="#007A38"></path>
<path transform="translate(527,1668)" d="m0 0h3l17 29 18 30v2l-4-2-7-11-6-9-7-11-11-19z" fill="#007B38"></path>
<path transform="translate(1258,1367)" d="m0 0h1v5h-2v2h-2l-2 5-2 6-8 12-3-1 1 3-4 4h-2v2h-2v2l-4 1v3l-5 1v2l-3 1 2-4 9-10 14-19 6-10z" fill="#007A37"></path>
<path transform="translate(62,215)" d="m0 0 1 3-2 10-1 13-1 26-1 84h-1l-1-80v-21l1-17 4-16z" fill="#00853F"></path>
<path transform="translate(543,96)" d="m0 0h12v1l-51 5-54 7-42 7h-7v-1l9-2 2 1v-2h6l7-2 4 1v-2h7v-1h8l7-2h6l4-1 18-2 16-2 7-1z" fill="#00984B"></path>
<path transform="translate(1048,1847)" d="m0 0h124v1l-19 1-6 1h-24l-32-1h-26l-17-1z" fill="#007534"></path>
<path transform="translate(688,1160)" d="m0 0 4 1-1 3h-3l-1 8-2 1-4 9-9 18-1 7h-2v-11l6-15 8-14z" fill="#007A38"></path>
<path transform="translate(393,1409)" d="m0 0h16l25 4 5 2 3 3-9 1-23-4-14-4z" fill="#007A37" data-source="https://football-logos.cc"></path>
<path transform="translate(7,1712)" d="m0 0h1l1 44v33l-1 12-2-1v-65z" fill="#FDFDFD"></path>
<path transform="translate(917,507)" d="m0 0 2 1v11l-3 9-4 5-1 3-7 6-1 2h-2l1-6 7-10 5-12z" fill="#007937"></path>
<path transform="translate(1370,173)" d="m0 0 5 1 10 10 10 15 6 13v5l-4-5-1-5h-2l-5-8v-2h-2l-6-12-8-9v-2z" fill="#007A37"></path>
<path transform="translate(667,1239)" d="m0 0h1l3 12 2 14 3 7 2 9 2 2 1 7-3-1-7-16-4-14z" fill="#007A37"></path>
<path transform="translate(731,56)" d="m0 0h60l33 1 18 1v1l-19 1-37-1v-2h-55z" fill="#009046"></path>
<path transform="translate(801,1846)" d="m0 0h6l1 2-10 2h-13l-14 1-10-2-5 1-3-3z" fill="#007534"></path>
<path transform="translate(601,1793)" d="m0 0h3l14 23 13 22v2l-4-2-5-7-3-6-6-10-4-7v-4l-3-1z" fill="#007C39"></path>
<path transform="translate(323,298)" d="m0 0h2v2l5 2 8 4v2l5 2 11 6 4 2v2h4v2l6 2 4 2v2l-6-1-18-10-22-14-3-2z" fill="#007C39"></path>
<path transform="translate(1346,199)" d="m0 0 4 1v2h3v2h2v2h2v2l5 2 1 3h2l2 4 2 1 4 13v4h-3l-5-13-8-11-7-7-4-3z" fill="#007B38"></path>
<path transform="translate(962,546)" d="m0 0h2l-1 6-9 11-9 10-8 8-4 3h-2l2-4h2l2-4 3-1 2-4h2l1-4h2l2-4h2l2-4 7-10z" fill="#007C39"></path>
<path transform="translate(584,763)" d="m0 0 2 2v8l2 7 4 2 1 4 5 2 4 4v2l4 2 5 2v2l3 1-4 1-11-7-10-10-5-9z" fill="#007B38"></path>
<path transform="translate(625,1721)" d="m0 0 8 1 3 4 1 14-4-1-8-14z" fill="#007936"></path>
<path transform="translate(683,1294)" d="m0 0h2v4l4 1 4 8v3l4 1 2 6h2l2 5h2l7 8 2 3-4-1-13-14-13-18z" fill="#007E3A"></path>
<path transform="translate(1379,1833)" d="m0 0h2l-1 4-9 9-12 9-6 1 5-7 7-3 6-5 5-5 3-1z" fill="#007C38"></path>
<path transform="translate(406,1799)" d="m0 0 2 1 1 28 1 7h-2l-1 6h-1l-1-6z" fill="#007534"></path>
<path transform="translate(508,1966)" d="m0 0h15l1 4h-2v6l-6-2-4-3v-2l-5-1z" fill="#00843F"></path>
<path transform="translate(457,1847)" d="m0 0h44l-4 3h-8l-4-1-4 1h-11l-13-2z" fill="#007534"></path>
<path transform="translate(1110,952)" d="m0 0h2l-1 5-10 14-9 11h-2v-3h2l1-4h2l2-5 3-3 1-3 3-2 2-4h2z" fill="#007C38"></path>
<path transform="translate(292,102)" d="m0 0 4 1-1 2-8 2-14 3h-6l1-2 6-2 1-2z" fill="#007C38"></path>
<path transform="translate(655,1846)" d="m0 0h18l20 1-4 2h-12l-10 1-17-2v-1z" fill="#007534"></path>
<path transform="translate(1100,837)" d="m0 0 4 2 5 3 8 9 5 8-1 4-3-3v-2h-2l-3-6-9-10z" fill="#007C38"></path>
<path transform="translate(603,393)" d="m0 0h19l4 2v2h-14l-8-1z" fill="#007C39"></path>
<path transform="translate(566,63)" d="m0 0h19l3 2-3 2h-18l1-2z" fill="#007534"></path>
<path transform="translate(634,59)" d="m0 0h13l-4 4h-7l-3-1-4 1h-7l-3-2 3-1z" fill="#007534"></path>
<path transform="translate(663,58)" d="m0 0 10 1 1 3-11 1v-2l-9 1-5-2v-1z" fill="#007534"></path>
<path transform="translate(1270,1601)" d="m0 0 2 1 1 22-2 7h-2z" fill="#007735"></path>
<path transform="translate(62,215)" d="m0 0 1 3-2 10-1 13-2 5h-1v-13l4-16z" fill="#008A43"></path>
<path transform="translate(910,1657)" d="m0 0h2l-1 5-4 5-7 5h-5l5-5 5-4h2l2-5z" fill="#007B38"></path>
<path transform="translate(470 2e3)" d="m0 0 5 2 5 1 3 2-7 1h-10l-1-4z" fill="#008540"></path>
<path transform="translate(283,265)" d="m0 0 7 5v2l4 2v2h3l1 4 4 2-3 1-12-11-4-4z" fill="#007E3A"></path>
<path transform="translate(1206,1766)" d="m0 0h2l-1 5-7 8-6 1 6-7z" fill="#007937"></path>
<path transform="translate(570,1741)" d="m0 0 4 1 10 17-1 4-6-9-4-7v-3h-2z" fill="#007D39"></path>
<path transform="translate(1265,1644)" d="m0 0h2l-1 4-5 8h-2l-1 4-5 4 8-16z" fill="#007936"></path>
<path transform="translate(585,389)" d="m0 0 10 1v2l3 1h-14l-6-2v-1z" fill="#007A37"></path>
<path transform="translate(923,1730)" d="m0 0 4 2-7 3-13 1 2-3 7-1z" fill="#007534"></path>
<path transform="translate(633,397)" d="m0 0h12l6 3v1h-12l-6-2z" fill="#007A37"></path>
<path transform="translate(554,385)" d="m0 0h7l3 1v2h6v1h-15l-7-2v-1z" fill="#007B38"></path>
<path transform="translate(541,273)" d="m0 0h10l6 4-4 1-7-1z" fill="#007534"></path>
<path transform="translate(1370,110)" d="m0 0 6 1 13 8-1 2-5-2-4-3-8-4z" fill="#B3B3B6"></path>
<path transform="translate(516 2e3)" d="m0 0 3 1v7h-6l-2-1v-2h2v-3z" fill="#008540"></path>
<path transform="translate(1101,967)" d="m0 0 1 3-10 12h-2v-3h2l1-4h2l2-4z" fill="#007E3A"></path>
<path transform="translate(949,456)" d="m0 0 5 2 6 7v3l-4-2-7-8z" fill="#007C39"></path>
<path transform="translate(519,380)" d="m0 0 12 1 2 1v2h-11l-5-1v-2z" fill="#007635"></path>
<path transform="translate(311,98)" d="m0 0 4 1-7 3-9 1h-3v-2l7-2z" fill="#007534"></path>
<path transform="translate(694,673)" d="m0 0h3l-1 3-10 6-3-1v-2z" fill="#007B38"></path>
<path transform="translate(516,1648)" d="m0 0h2l6 10-1 4-3-4v-2h-2l-2-4z" fill="#007D39"></path>
<path transform="translate(459,2027)" d="m0 0h6v2l3-1 1 4h-7l-3-1z" fill="#A4A4A8"></path>
<path transform="translate(444 2e3)" d="m0 0h4v2l4 1v1l-8 1-6-3v-1z" fill="#00823E"></path>
<path transform="translate(325,1938)" d="m0 0h10v3l-7 1-4-1z" fill="#00823E"></path>
<path transform="translate(281,1926)" d="m0 0 9 1 9 2v1l-11 1-7-4z" fill="#009649"></path>
<path transform="translate(1326,1340)" d="m0 0h5l-2 3-7 3h-5l2-3z" fill="#007C39"></path>
<path transform="translate(943,1969)" d="m0 0h15v1l-14 2-3 2v-4z" fill="#D1251A"></path>
<path transform="translate(60,1883)" d="m0 0 5 2 2 5 4 2 3 3-4-1-10-9z" fill="#008942"></path>
<path transform="translate(275,105)" d="m0 0h4l1 3-7 2h-6l1-2z" fill="#007534"></path>
<path transform="translate(265,1922)" d="m0 0 8 1 8 2v1h-10l-5-1z" fill="#00964A"></path>
<path transform="translate(601,1793)" d="m0 0h3l6 10-3 1z" fill="#007E3A"></path>
<path transform="translate(529,269)" d="m0 0h8l3 3-1 2-5-1-5-2z" fill="#007836"></path>
<path transform="translate(903,1598)" d="m0 0 4 1 3 3-1 4-6-5z" fill="#007E3A"></path>
<path transform="translate(675,1281)" d="m0 0 4 1 2 5-1 3-3-3z" fill="#007D39"></path>
<path transform="translate(308,288)" d="m0 0h3v2h3v2h2v2l3 1-3 1-8-6z" fill="#007C38" data-source="https://football-logos.cc"></path>
<!-- source: https://football-logos.cc --></svg>