<svg xmlns="http://www.w3.org/2000/svg" xmlns:xlink="http://www.w3.org/1999/xlink" viewBox="0.67 0.68 73.95 73.81"><!-- Source: https://football-logos.cc --><clipPath id="b" data-source="https://football-logos.cc"><path d="M164.36 789h33.945v4.7H164.36z"></path></clipPath><clipPath id="c"><path d="M164.36 770h33.945v15H164.36z"></path></clipPath><use xlink:href="#a" width="100%" height="100%" x="329.351" y="773.657" fill="#d10214" transform="translate(-164.36 -759.81)"></use><use xlink:href="#a" width="100%" height="100%" x="334.853" y="773.657" fill="#d10214" transform="translate(-164.36 -759.81)"></use><path fill="#8f9191" d="M.68 54.792v4.842h73.692V25.4z" data-source="https://football-logos.cc"></path><path fill="#d10214" d="M74.373.68H.681v52.555l73.692-29.392z"></path><path fill="#fff" d="M50.512 26.753c-.17-.63-.698-.562-1.123-.579-.604-.042-1.064-.025-1.898-.093a15 15 0 0 1-2.068-.264c-.408-.077-1.616-.375-1.616-.375-2.587-.62-4.8-2.033-7.489-2.85-.042.034-.17.153-.221.187-.757-.349-1.915-.179-2.374-.29-2.051-.978-4.57-1.276-4.57-1.276l-.144-.485s-5.957-.868-7.276-.978c.434-2.672 1.693-5.37 2.306-6.689l1.676.12.324-.724s.264-.604.493-.928c.222-.297.468-.28.536-.51.094-.264-.204-1.123.01-1.898.127-.51.356-.774.28-1.183-.238-1.31-2.034-2.39-3.26-2.39-2.382 0-3.063 2.016-3.003 3.54-2.502-.835-7.871-.188-7.871-.188l-.137.528s-.808-.153-1.242.298c-1.566 1.65-4.23 5.122-4.23 5.122-.544.018-.96.332-1.301.817-.349.494-.825.604-1.43.86-.22.076-.136.502.043.51.391.043.893-.204 1.344-.425-.28.519-1.106.919-1.327 1.148-.06.068-.077.12-.009.239.306.476 1.728.17 2.306-.239.434-.306.91-.723.91-.723s.265-.902.426-1.02c.936-.826 2.783-2.35 4.374-3.762 2.86.23 3.949.28 4.102.298l-1.506.604c-.98 1.838-1.966 8.169-1.66 8.918.06 0 .298-.196.426-.179-.23.826.008 3.174.008 3.174.204 2.179.91 5.08 1.209 5.702l.553.119c.093.757.876 2.8 1.336 3.778-1.668.077-3.889 2.391-5.787 4.093-1.149 1.038-2.348.358-2.655.17-.315-.187-.706-.238-1.03.018a.5.5 0 0 0-.093.093c-.017.01-.025.018-.042.018l-.026-.009-.034-.017c-.05-.034-.136.008-.187.093l-.12.188c-.059.085-.059.178 0 .212l.06.043c-.06.119-.11.247-.161.357l-.051-.017c-.06-.026-.137.034-.17.136l-.068.204c-.043.094-.018.187.042.213l.051.017c-.315.758-.979 1.123-1.328 1.932l-.076-.026c-.06-.017-.136.043-.17.137l-.068.204c-.034.093-.018.187.042.212l.077.026a4 4 0 0 0-.128.638h-.085c-.06-.009-.12.077-.12.179l-.008.213c-.009.102.043.187.102.195h.077c-.009.187-.017.536-.009.75.026.467.817.697 1.047.263 1.949-3.736 7.982-4.544 12.849-6.893-.026-.077-.094-.17-.11-.272.212-.102.629-.323.995-.545.366-.204.672-.417.74-.468.204-.153.46-.374.604-.655.222-.417.222-.791.222-.953.008-.51-.034-1.31-.068-2.085a40 40 0 0 0-.187-2.51c.093-.009.417-.102.417-.102l-.392-3.532-1.225-.604 7.999.042s.017-.076.119-.4c2.272.086 2.902.051 4.995.111.962.018 1.387.732 2.17.928 2.485.612 3.795-.213 7.675.527 0 0 .196.034.256.204.102.34.11.97.247 1.243.314.595.757.527 1.148.366l.051.11c.034.06.128.068.222.034l.195-.093c.094-.043.145-.128.12-.187l-.052-.111.281-.136.051.11c.026.06.12.068.213.026l.204-.094c.085-.042.145-.119.11-.178l-.05-.111c.885-.409 1.736-.791 2.502-1.149l.034.077c.025.06.127.068.212.025l.205-.093c.093-.043.144-.12.11-.179l-.034-.085.247-.12.042.077c.026.06.12.068.213.018l.196-.094c.085-.043.136-.128.11-.187l-.042-.085.128-.077c.213-.153.323-.23.29-.349m7.139-4.85a3.307 3.307 0 1 1-6.612 0c0-1.821 1.48-3.31 3.31-3.31a3.31 3.31 0 0 1 3.302 3.31"></path><g stroke-width=".459" data-source="https://football-logos.cc"><g clip-path="url(#b)" transform="translate(-357.37 -1654.5)scale(2.1784)"><path fill="#191917" d="m196.43 790.57-.527 1.645h1.047zm.703 2.3h-1.426l-.254.763h-.902l1.3-3.637h1.157l1.297 3.637h-.914zm-2.965-1.339v1.977c-.34.117-.789.191-1.257.191-1.262 0-1.86-.562-1.86-1.887 0-1.316.598-1.882 1.86-1.882.449 0 .875.07 1.199.203v.703a3.6 3.6 0 0 0-1.125-.192c-.762 0-1.004.309-1.004 1.168 0 .899.25 1.196.969 1.196q.247-.001.476-.032v-.812h-.672v-.633zm-4.672-1.535h.91v3.637h-.91zm-3.035 0h.91v2.945h1.559v.692h-2.469zm-3.32 3.496v-.707c.437.144.832.2 1.215.2.418 0 .601-.114.601-.395 0-.247-.078-.317-.414-.387l-.601-.125c-.633-.13-.84-.387-.84-1.008 0-.797.469-1.14 1.414-1.14.426 0 .828.07 1.156.195v.71a3.4 3.4 0 0 0-1.105-.19c-.45 0-.602.116-.602.402 0 .234.106.3.399.363l.59.125c.683.148.87.379.87 1.031 0 .777-.48 1.133-1.46 1.133q-.647 0-1.223-.207m-3.121-3.496h2.547v.695h-1.637v.766h1.36v.683h-1.36v.801h1.672v.691h-2.582zm-2.293 2.945c.531 0 .703-.277.703-1.129 0-.844-.172-1.12-.703-1.12h-.692v2.25zm-1.602-2.945h1.625c1.274 0 1.61.523 1.61 1.816 0 1.258-.368 1.82-1.61 1.82h-1.625zm-.746 0v3.636h-1.105l-1.547-2.628v2.628h-.844v-3.636h1.105l1.547 2.633v-2.633zm-7.422 2.453v-2.453h.91v2.426c0 .402.18.554.672.554s.672-.152.672-.554v-2.426h.91v2.453c0 .855-.496 1.25-1.582 1.25s-1.582-.395-1.582-1.25m-1.473.105c0-.336-.136-.476-.445-.476h-.812v.941h.812c.324 0 .445-.137.445-.465m-1.257-1.039h.761c.301 0 .438-.133.438-.445 0-.328-.125-.457-.438-.457h-.761zm2.136 1.125c0 .649-.3.992-1.12.992h-1.884v-3.636h1.817c.844 0 1.137.336 1.137.949 0 .473-.176.684-.68.809l-.094.027.086.016c.563.125.738.335.738.843"></path></g><g clip-path="url(#c)" transform="translate(-357.37 -1654.5)scale(2.1784)"><path fill="#fff" d="m198.19 770.44-33.828 13.492v.715l23.746-9.469v1.3a8.7 8.7 0 0 1 3.645-.804c1.32 0 1.835.371 1.835 1.32 0 .82-.304 1.137-1.414 1.454l-1.336.382c-2.535.727-3.207 1.797-3.207 3.66v2.297h8.32v-2.046h-5.663v-.477c0-.727.144-1.094 1.277-1.414l1.348-.383c2.55-.726 3.199-1.492 3.199-3.668 0-2.09-1.285-3.195-3.809-3.297l5.887-2.348z"></path></g></g><!-- source: https://football-logos.cc --></svg>